<svg width="32" height="32" viewBox="0 0 32 32" fill="none" xmlns="http://www.w3.org/2000/svg">
<path opacity="0.1" fill-rule="evenodd" clip-rule="evenodd" d="M0 16C0 7.16344 7.16344 0 16 0C24.8366 0 32 7.16344 32 16C32 24.8366 24.8366 32 16 32C7.16344 32 0 24.8366 0 16Z" fill="white"/>
<path fill-rule="evenodd" clip-rule="evenodd" d="M24.5335 15.5215C24.5335 16.0986 24.4747 16.6749 24.3593 17.2366C24.2468 17.785 24.0801 18.3234 23.8618 18.8381C23.6485 19.3437 23.3839 19.8309 23.0747 20.2853C22.7701 20.7368 22.4192 21.1603 22.0338 21.5465C21.6475 21.9309 21.2225 22.2808 20.7712 22.5867C20.3154 22.8937 19.8275 23.1579 19.3216 23.3723C18.8061 23.5894 18.2665 23.7559 17.7186 23.8682C17.1561 23.9839 16.5777 24.043 15.9997 24.043C15.4214 24.043 14.843 23.9839 14.2813 23.8682C13.7326 23.7559 13.1929 23.5894 12.6779 23.3723C12.1721 23.1579 11.6837 22.8937 11.2278 22.5867C10.7766 22.2808 10.3516 21.9309 9.96611 21.5465C9.58027 21.1603 9.2294 20.7368 8.92439 20.2853C8.61687 19.8309 8.35184 19.3437 8.13768 18.8381C7.9193 18.3234 7.75224 17.785 7.63931 17.2366C7.52515 16.6749 7.4668 16.0986 7.4668 15.5215C7.4668 14.944 7.52511 14.3665 7.63934 13.8059C7.75227 13.2575 7.91934 12.7183 8.13771 12.2044C8.35187 11.6985 8.6169 11.2108 8.92442 10.7565C9.22943 10.3046 9.5803 9.88182 9.96614 9.49527C10.3516 9.11079 10.7766 8.76173 11.2279 8.45632C11.6837 8.14798 12.1721 7.8838 12.6779 7.66908C13.193 7.45142 13.7326 7.28459 14.2814 7.1731C14.8431 7.05827 15.4214 7 15.9998 7C16.5777 7 17.1561 7.05827 17.7186 7.1731C18.2665 7.28463 18.8061 7.45145 19.3216 7.66908C19.8275 7.88376 20.3154 8.14798 20.7713 8.45632C21.2225 8.76173 21.6476 9.11079 22.0338 9.49527C22.4193 9.88182 22.7701 10.3046 23.0747 10.7565C23.3839 11.2108 23.6485 11.6985 23.8618 12.2044C24.0801 12.7183 24.2468 13.2575 24.3593 13.8059C24.4747 14.3665 24.5335 14.944 24.5335 15.5215ZM12.8904 8.93938C10.8582 9.89765 9.34143 11.7675 8.86848 14.0211C9.0606 14.0227 12.0974 14.061 15.5963 13.1327C14.335 10.895 12.9875 9.06882 12.8904 8.93938ZM16.2001 14.2533C12.4479 15.375 8.84724 15.2943 8.71808 15.2893C8.71597 15.3675 8.71223 15.4433 8.71223 15.5215C8.71223 17.3909 9.41851 19.0952 10.5794 20.3839C10.5769 20.3801 12.5712 16.8471 16.5039 15.5773C16.5989 15.5456 16.6956 15.5173 16.7914 15.4899C16.6085 15.0763 16.4089 14.6619 16.2001 14.2533ZM20.8125 10.0599C19.5295 8.93022 17.8448 8.24496 15.9997 8.24496C15.4076 8.24496 14.833 8.31654 14.2825 8.44884C14.3917 8.59533 15.7605 10.4086 17.0068 12.6937C19.7566 11.6644 20.7945 10.0865 20.8125 10.0599ZM17.2882 16.6957C17.2719 16.7011 17.2557 16.7057 17.2398 16.7115C12.9401 18.2083 11.536 21.2248 11.5208 21.2577C12.7579 22.2184 14.3097 22.798 15.9998 22.798C17.009 22.798 17.9703 22.5929 18.8449 22.2213C18.737 21.5856 18.3136 19.357 17.2882 16.6957ZM20.072 21.5564C21.7083 20.4538 22.8705 18.7029 23.1946 16.6749C23.0446 16.6266 21.0058 15.9821 18.6536 16.3586C19.6095 18.9817 19.9978 21.1179 20.072 21.5564ZM17.5678 13.7781C17.7369 14.1251 17.9007 14.4783 18.0519 14.8333C18.1057 14.9606 18.1582 15.0854 18.2095 15.2103C20.7129 14.8957 23.1793 15.4249 23.2847 15.4466C23.2681 13.7215 22.6501 12.1383 21.6276 10.8988C21.6138 10.9183 20.445 12.6047 17.5678 13.7781Z" fill="white"/>
</svg>
