<svg width="180" height="54" viewBox="0 0 180 54" fill="none" xmlns="http://www.w3.org/2000/svg">
<path d="M165.666 0.000173333H14.3422C13.7906 0.000173333 13.2456 0.000173333 12.6955 0.00284C12.235 0.00550667 11.7781 0.0132533 11.3132 0.0197733C10.3031 0.0303091 9.29543 0.109075 8.29888 0.255387C7.30373 0.404884 6.33976 0.686728 5.43956 1.09139C4.54046 1.49947 3.71893 2.02973 3.00477 2.66293C2.28686 3.29436 1.68842 4.0242 1.23248 4.82439C0.775271 5.62299 0.458244 6.47876 0.292343 7.36215C0.124866 8.24442 0.0347448 9.13687 0.0227888 10.0315C0.00882972 10.4403 0.00735559 10.8504 0 11.2593V42.0783C0.00735559 42.4923 0.00882972 42.8934 0.0227888 43.3075C0.0347485 44.2021 0.12487 45.0945 0.292343 45.9767C0.457785 46.8606 0.774831 47.7169 1.23248 48.5158C1.68821 49.3134 2.28673 50.0403 3.00477 50.6682C3.71622 51.3042 4.53828 51.8348 5.43956 52.2398C6.33975 52.6455 7.30362 52.929 8.29888 53.0808C9.2956 53.226 10.3032 53.3048 11.3132 53.3166C11.7781 53.3256 12.235 53.3308 12.6955 53.3308C13.2456 53.3335 13.7906 53.3335 14.3422 53.3335H165.666C166.207 53.3335 166.756 53.3335 167.296 53.3308C167.755 53.3308 168.225 53.3256 168.683 53.3166C169.691 53.3054 170.697 53.2266 171.692 53.0808C172.69 52.928 173.657 52.6445 174.562 52.2398C175.462 51.8346 176.284 51.304 176.995 50.6682C177.711 50.0378 178.311 49.3115 178.772 48.5158C179.226 47.7163 179.54 46.8601 179.703 45.9767C179.871 45.0944 179.964 44.2022 179.982 43.3075C179.988 42.8934 179.988 42.4923 179.988 42.0783C180 41.5939 180 41.1122 180 40.6199V12.715C180 12.2267 180 11.7424 179.988 11.2593C179.988 10.8504 179.988 10.4403 179.982 10.0314C179.964 9.13674 179.871 8.24449 179.703 7.36209C179.54 6.47922 179.226 5.62351 178.772 4.82433C177.843 3.22043 176.371 1.91487 174.562 1.09127C173.657 0.687596 172.69 0.405827 171.692 0.255267C170.697 0.10831 169.691 0.029517 168.683 0.0195867C168.225 0.01308 167.755 0.00526667 167.296 0.00266667C166.756 0 166.207 0 165.666 0V0.000173333Z" fill="white"/>
<path d="M12.5733 52.1708C12.1143 52.1708 11.6663 52.1656 11.2108 52.1566C10.2672 52.1457 9.32578 52.073 8.39432 51.939C7.52578 51.8066 6.6844 51.5604 5.89793 51.2084C5.11867 50.8592 4.40792 50.4015 3.79292 49.8526C3.16901 49.3102 2.64958 48.6811 2.2552 47.9902C1.85649 47.2949 1.58055 46.5495 1.43701 45.7802C1.28199 44.9535 1.19812 44.1176 1.18612 43.2796C1.17657 42.9984 1.16406 42.0619 1.16406 42.0619V11.2547C1.16406 11.2547 1.17738 10.3326 1.1862 10.0618C1.19769 9.22515 1.28107 8.39054 1.43562 7.56514C1.57943 6.79367 1.85558 6.04618 2.25451 5.34854C2.64743 4.65815 3.16398 4.02857 3.78413 3.48422C4.40359 2.93469 5.11661 2.47457 5.89719 2.12064C6.68185 1.76974 7.52164 1.52521 8.38843 1.39523C9.32295 1.25996 10.2676 1.18682 11.2145 1.17644L12.5741 1.16016H167.427L168.803 1.17709C169.741 1.18696 170.677 1.25944 171.603 1.39393C172.478 1.52553 173.327 1.77177 174.121 2.12454C175.684 2.83782 176.957 3.96629 177.759 5.35179C178.152 6.04461 178.424 6.78601 178.566 7.55081C178.722 8.38299 178.81 9.22416 178.828 10.0676C178.832 10.4453 178.832 10.851 178.832 11.2547C178.844 11.7548 178.844 12.2308 178.844 12.7107V40.6215C178.844 41.106 178.844 41.5787 178.832 42.0554C178.832 42.4891 178.832 42.8863 178.826 43.2952C178.809 44.1236 178.723 44.9498 178.569 45.7671C178.428 46.542 178.154 47.2932 177.755 47.9942C177.358 48.6776 176.841 49.3012 176.225 49.8422C175.609 50.394 174.897 50.8545 174.116 51.2058C173.325 51.5606 172.477 51.8077 171.603 51.939C170.671 52.0737 169.73 52.1464 168.786 52.1566C168.345 52.1656 167.883 52.1708 167.434 52.1708L165.801 52.1735L12.5733 52.1708Z" fill="white"/>
<path d="M43.7298 27.0673C43.7441 25.9544 44.0397 24.8632 44.5891 23.8953C45.1384 22.9273 45.9237 22.1141 46.8718 21.5312C46.2695 20.671 45.4749 19.9631 44.5512 19.4637C43.6274 18.9642 42.5999 18.6871 41.5503 18.6543C39.3113 18.4193 37.1407 19.9941 35.9998 19.9941C34.8367 19.9941 33.0801 18.6776 31.1884 18.7165C29.9649 18.7561 28.7724 19.1119 27.7272 19.7493C26.682 20.3867 25.8198 21.284 25.2245 22.3537C22.6459 26.8183 24.5693 33.3797 27.0395 36.9885C28.2753 38.7556 29.7197 40.7295 31.6096 40.6595C33.459 40.5828 34.1498 39.4802 36.3822 39.4802C38.5938 39.4802 39.2419 40.6595 41.1702 40.615C43.1547 40.5828 44.405 38.84 45.5975 37.0562C46.4855 35.797 47.1688 34.4054 47.6221 32.9328C46.4691 32.4452 45.4852 31.629 44.7931 30.5859C44.1009 29.5428 43.7311 28.3191 43.7298 27.0673Z" fill="black"/>
<path d="M40.0875 16.2811C41.1696 14.9822 41.7026 13.3126 41.5736 11.627C39.9204 11.8006 38.3934 12.5907 37.2968 13.8398C36.7606 14.45 36.3499 15.1599 36.0883 15.9289C35.8266 16.698 35.7191 17.511 35.7718 18.3216C36.5987 18.3301 37.4167 18.1509 38.1642 17.7975C38.9118 17.444 39.5694 16.9255 40.0875 16.2811Z" fill="black"/>
<path d="M67.1077 36.1866H60.7965L59.2808 40.6618H56.6077L62.5855 24.1045H65.3629L71.3407 40.6618H68.622L67.1077 36.1866ZM61.4501 34.1215H66.4528L63.9866 26.8584H63.9176L61.4501 34.1215Z" fill="black"/>
<path d="M84.251 34.6264C84.251 38.3777 82.2432 40.7879 79.2133 40.7879C78.4457 40.828 77.6824 40.6512 77.0107 40.2777C76.3389 39.9042 75.786 39.3491 75.4151 38.6759H75.3577V44.6551H72.8799V28.59H75.2784V30.5978H75.3239C75.7119 29.9278 76.2742 29.3756 76.951 28.9998C77.6279 28.624 78.3939 28.4387 79.1677 28.4637C82.2314 28.4637 84.251 30.8855 84.251 34.6264ZM81.7041 34.6264C81.7041 32.1824 80.4411 30.5756 78.514 30.5756C76.6208 30.5756 75.3474 32.2163 75.3474 34.6264C75.3474 37.0587 76.6208 38.6876 78.514 38.6876C80.4411 38.6876 81.7041 37.0926 81.7041 34.6264Z" fill="black"/>
<path d="M97.5374 34.6264C97.5374 38.3777 95.5296 40.7879 92.4996 40.7879C91.7321 40.828 90.9688 40.6512 90.297 40.2777C89.6253 39.9042 89.0724 39.349 88.7015 38.6759H88.6441V44.655H86.1663V28.5899H88.5647V30.5978H88.6103C88.9982 29.9278 89.5605 29.3756 90.2374 28.9998C90.9142 28.624 91.6803 28.4387 92.454 28.4637C95.5179 28.4637 97.5374 30.8855 97.5374 34.6264ZM94.9905 34.6264C94.9905 32.1824 93.7275 30.5756 91.8004 30.5756C89.9072 30.5756 88.6337 32.2163 88.6337 34.6264C88.6337 37.0587 89.9072 38.6876 91.8004 38.6876C93.7275 38.6876 94.9905 37.0926 94.9905 34.6264H94.9905Z" fill="black"/>
<path d="M106.318 36.0482C106.502 37.6902 108.097 38.7682 110.277 38.7682C112.365 38.7682 113.868 37.6901 113.868 36.2096C113.868 34.9245 112.962 34.155 110.816 33.6276L108.67 33.1107C105.63 32.3763 104.218 30.9544 104.218 28.6471C104.218 25.7904 106.708 23.8281 110.243 23.8281C113.742 23.8281 116.14 25.7904 116.221 28.6471H113.719C113.57 26.9948 112.204 25.9974 110.208 25.9974C108.212 25.9974 106.846 27.0065 106.846 28.4753C106.846 29.6458 107.718 30.3346 109.852 30.8619L111.677 31.3099C115.074 32.1132 116.485 33.4779 116.485 35.8997C116.485 38.9974 114.018 40.9375 110.093 40.9375C106.421 40.9375 103.942 39.0429 103.782 36.0481L106.318 36.0482Z" fill="black"/>
<path d="M121.833 25.7334V28.5902H124.128V30.5524H121.833V37.2074C121.833 38.2412 122.293 38.723 123.302 38.723C123.574 38.7182 123.846 38.6991 124.117 38.6657V40.6162C123.663 40.7009 123.202 40.7393 122.74 40.7308C120.296 40.7308 119.343 39.8128 119.343 37.4716V30.5524H117.588V28.5902H119.343V25.7334H121.833Z" fill="black"/>
<path d="M125.458 34.6263C125.458 30.8281 127.695 28.4414 131.183 28.4414C134.683 28.4414 136.91 30.8281 136.91 34.6263C136.91 38.4349 134.695 40.8112 131.183 40.8112C127.673 40.8112 125.458 38.4349 125.458 34.6263ZM134.385 34.6263C134.385 32.0208 133.191 30.4831 131.183 30.4831C129.175 30.4831 127.983 32.0326 127.983 34.6263C127.983 37.2422 129.175 38.7682 131.183 38.7682C133.191 38.7682 134.385 37.2422 134.385 34.6263H134.385Z" fill="black"/>
<path d="M138.953 28.5898H141.316V30.6445H141.373C141.533 30.0028 141.909 29.4357 142.438 29.0385C142.967 28.6413 143.616 28.4383 144.277 28.4635C144.562 28.4625 144.847 28.4935 145.126 28.556V30.8737C144.765 30.7635 144.389 30.713 144.013 30.724C143.653 30.7093 143.294 30.7728 142.961 30.91C142.627 31.0472 142.328 31.2548 142.083 31.5187C141.837 31.7825 141.652 32.0963 141.539 32.4386C141.427 32.7808 141.39 33.1433 141.431 33.5013V40.6614H138.953L138.953 28.5898Z" fill="black"/>
<path d="M156.55 37.1159C156.217 39.3073 154.083 40.8112 151.352 40.8112C147.841 40.8112 145.661 38.4583 145.661 34.6836C145.661 30.8971 147.852 28.4414 151.248 28.4414C154.588 28.4414 156.688 30.7357 156.688 34.3958V35.2448H148.162V35.3945C148.123 35.8388 148.178 36.2863 148.325 36.7075C148.472 37.1286 148.707 37.5136 149.014 37.837C149.321 38.1604 149.694 38.4148 150.107 38.5832C150.52 38.7516 150.964 38.8302 151.41 38.8138C151.995 38.8687 152.583 38.733 153.085 38.4271C153.587 38.1212 153.977 37.6613 154.197 37.1159L156.55 37.1159ZM148.174 33.513H154.209C154.231 33.1136 154.171 32.7138 154.031 32.3389C153.892 31.9639 153.676 31.6219 153.398 31.3342C153.12 31.0465 152.785 30.8194 152.416 30.6671C152.046 30.5148 151.648 30.4406 151.248 30.4492C150.845 30.4468 150.445 30.5243 150.071 30.6773C149.698 30.8303 149.358 31.0557 149.073 31.3406C148.787 31.6254 148.56 31.9641 148.406 32.3369C148.252 32.7098 148.173 33.1095 148.174 33.513V33.513Z" fill="black"/>
<path d="M61.1396 11.6414C61.659 11.6041 62.1803 11.6826 62.6658 11.8711C63.1513 12.0597 63.5889 12.3537 63.947 12.7318C64.3051 13.11 64.5748 13.5629 64.7367 14.058C64.8986 14.553 64.9486 15.0778 64.8831 15.5945C64.8831 18.1361 63.5094 19.5971 61.1396 19.5971H58.2659V11.6414H61.1396ZM59.5015 18.472H61.0015C61.3727 18.4942 61.7442 18.4333 62.0889 18.2939C62.4337 18.1544 62.7429 17.9398 62.9943 17.6657C63.2456 17.3916 63.4326 17.0649 63.5418 16.7094C63.6509 16.3539 63.6794 15.9786 63.6252 15.6107C63.6755 15.2442 63.6441 14.8712 63.5333 14.5183C63.4225 14.1654 63.235 13.8414 62.9842 13.5695C62.7335 13.2976 62.4257 13.0845 62.0829 12.9456C61.7401 12.8066 61.3708 12.7451 61.0015 12.7656H59.5015V18.472Z" fill="black"/>
<path d="M66.2788 16.5927C66.241 16.1982 66.2862 15.8001 66.4113 15.424C66.5364 15.0479 66.7387 14.7021 67.0053 14.4088C67.2719 14.1155 67.5969 13.8811 67.9593 13.7207C68.3218 13.5604 68.7138 13.4775 69.1102 13.4775C69.5065 13.4775 69.8985 13.5604 70.261 13.7207C70.6234 13.8811 70.9484 14.1155 71.215 14.4088C71.4816 14.7021 71.6839 15.0479 71.809 15.424C71.9341 15.8001 71.9793 16.1982 71.9415 16.5927C71.98 16.9877 71.9354 17.3863 71.8106 17.763C71.6858 18.1397 71.4836 18.4861 71.2169 18.78C70.9503 19.0739 70.6251 19.3088 70.2623 19.4695C69.8994 19.6302 69.507 19.7132 69.1102 19.7132C68.7133 19.7132 68.3209 19.6302 67.958 19.4695C67.5952 19.3088 67.27 19.0739 67.0034 18.78C66.7367 18.4861 66.5345 18.1397 66.4097 17.763C66.2849 17.3863 66.2403 16.9877 66.2788 16.5927ZM70.7228 16.5927C70.7228 15.2913 70.1381 14.5302 69.1121 14.5302C68.0822 14.5302 67.5028 15.2913 67.5028 16.5927C67.5028 17.9046 68.0822 18.6598 69.1121 18.6598C70.1382 18.6598 70.7228 17.8993 70.7228 16.5927H70.7228Z" fill="black"/>
<path d="M79.469 19.5972H78.2398L76.9989 15.1753H76.9052L75.6695 19.5972H74.4521L72.7971 13.5933H73.9989L75.0745 18.1746H75.163L76.3974 13.5933H77.5341L78.7685 18.1746H78.8622L79.9325 13.5933H81.1174L79.469 19.5972Z" fill="black"/>
<path d="M82.5093 13.593H83.6499V14.5468H83.7385C83.8887 14.2042 84.142 13.917 84.4632 13.7253C84.7843 13.5336 85.1573 13.4468 85.5301 13.4771C85.8223 13.4551 86.1156 13.4992 86.3884 13.606C86.6612 13.7128 86.9064 13.8796 87.106 14.094C87.3056 14.3085 87.4544 14.5651 87.5413 14.8449C87.6282 15.1246 87.6511 15.4204 87.6082 15.7102V19.5968H86.4233V16.0077C86.4233 15.0429 86.0041 14.563 85.1278 14.563C84.9294 14.5538 84.7314 14.5876 84.5474 14.662C84.3633 14.7364 84.1975 14.8498 84.0613 14.9943C83.9251 15.1388 83.8218 15.3111 83.7585 15.4993C83.6951 15.6874 83.6732 15.8871 83.6942 16.0845V19.5969H82.5093L82.5093 13.593Z" fill="black"/>
<path d="M89.4963 11.2495H90.6812V19.5972H89.4963V11.2495Z" fill="black"/>
<path d="M92.3283 16.5928C92.2906 16.1982 92.3358 15.8001 92.4609 15.424C92.5861 15.0479 92.7884 14.7021 93.055 14.4088C93.3217 14.1155 93.6466 13.8811 94.0091 13.7208C94.3716 13.5604 94.7636 13.4775 95.16 13.4775C95.5564 13.4775 95.9484 13.5604 96.3109 13.7208C96.6734 13.8811 96.9984 14.1155 97.265 14.4088C97.5316 14.7021 97.734 15.0479 97.8591 15.424C97.9843 15.8001 98.0294 16.1982 97.9917 16.5928C98.0301 16.9878 97.9855 17.3864 97.8607 17.7631C97.7358 18.1398 97.5336 18.4863 97.2669 18.7801C97.0002 19.074 96.675 19.3088 96.3122 19.4696C95.9493 19.6303 95.5569 19.7133 95.16 19.7133C94.7632 19.7133 94.3707 19.6303 94.0079 19.4696C93.645 19.3088 93.3198 19.074 93.0531 18.7801C92.7864 18.4863 92.5842 18.1398 92.4594 17.7631C92.3345 17.3864 92.2899 16.9878 92.3283 16.5928ZM96.7723 16.5928C96.7723 15.2914 96.1877 14.5303 95.1616 14.5303C94.1317 14.5303 93.5523 15.2914 93.5523 16.5928C93.5523 17.9047 94.1317 18.6599 95.1616 18.6599C96.1877 18.6599 96.7723 17.8995 96.7723 16.5928H96.7723Z" fill="black"/>
<path d="M99.2393 17.8994C99.2393 16.8187 100.044 16.1956 101.472 16.1071L103.099 16.0133V15.4951C103.099 14.861 102.679 14.5029 101.869 14.5029C101.208 14.5029 100.75 14.7458 100.618 15.1702H99.471C99.5921 14.139 100.562 13.4775 101.924 13.4775C103.429 13.4775 104.278 14.2269 104.278 15.4951V19.5973H103.138V18.7536H103.044C102.854 19.0562 102.586 19.303 102.27 19.4686C101.953 19.6342 101.598 19.7128 101.241 19.6962C100.989 19.7225 100.734 19.6956 100.493 19.6173C100.252 19.539 100.03 19.4111 99.8412 19.2418C99.6527 19.0726 99.5017 18.8656 99.398 18.6344C99.2943 18.4032 99.2403 18.1528 99.2393 17.8994ZM103.099 17.3864V16.8844L101.632 16.9782C100.806 17.0335 100.431 17.3148 100.431 17.8441C100.431 18.3844 100.899 18.6989 101.544 18.6989C101.733 18.718 101.924 18.6989 102.105 18.6428C102.286 18.5867 102.455 18.4947 102.6 18.3722C102.745 18.2497 102.864 18.0994 102.949 17.93C103.035 17.7606 103.086 17.5758 103.099 17.3864Z" fill="black"/>
<path d="M105.835 16.5926C105.835 14.6955 106.811 13.4937 108.328 13.4937C108.703 13.4764 109.075 13.5663 109.401 13.7528C109.727 13.9393 109.994 14.2148 110.169 14.547H110.257V11.2495H111.442V19.5972H110.307V18.6486H110.213C110.024 18.9786 109.749 19.2506 109.416 19.4353C109.084 19.6199 108.708 19.7101 108.328 19.6961C106.8 19.6962 105.835 18.4943 105.835 16.5926ZM107.059 16.5926C107.059 17.8661 107.66 18.6324 108.664 18.6324C109.662 18.6324 110.28 17.855 110.28 16.5978C110.28 15.3465 109.656 14.5581 108.664 14.5581C107.666 14.5581 107.059 15.3296 107.059 16.5926H107.059Z" fill="black"/>
<path d="M116.345 16.5927C116.307 16.1982 116.352 15.8001 116.477 15.424C116.602 15.0479 116.805 14.7021 117.071 14.4088C117.338 14.1155 117.663 13.8811 118.025 13.7207C118.388 13.5604 118.78 13.4775 119.176 13.4775C119.572 13.4775 119.964 13.5604 120.327 13.7207C120.689 13.8811 121.014 14.1155 121.281 14.4088C121.547 14.7021 121.75 15.0479 121.875 15.424C122 15.8001 122.045 16.1982 122.007 16.5927C122.046 16.9877 122.001 17.3863 121.877 17.763C121.752 18.1397 121.55 18.4861 121.283 18.78C121.016 19.0739 120.691 19.3088 120.328 19.4695C119.965 19.6302 119.573 19.7132 119.176 19.7132C118.779 19.7132 118.387 19.6302 118.024 19.4695C117.661 19.3088 117.336 19.0739 117.069 18.78C116.803 18.4861 116.6 18.1397 116.476 17.763C116.351 17.3863 116.306 16.9877 116.345 16.5927ZM120.789 16.5927C120.789 15.2913 120.204 14.5302 119.178 14.5302C118.148 14.5302 117.569 15.2913 117.569 16.5927C117.569 17.9046 118.148 18.6598 119.178 18.6598C120.204 18.6598 120.789 17.8993 120.789 16.5927Z" fill="black"/>
<path d="M123.597 13.593H124.738V14.5468H124.826C124.977 14.2042 125.23 13.917 125.551 13.7253C125.872 13.5336 126.245 13.4468 126.618 13.4771C126.91 13.4551 127.203 13.4992 127.476 13.606C127.749 13.7128 127.994 13.8796 128.194 14.094C128.393 14.3085 128.542 14.5651 128.629 14.8449C128.716 15.1246 128.739 15.4204 128.696 15.7102V19.5968H127.511V16.0077C127.511 15.0429 127.092 14.563 126.216 14.563C126.017 14.5538 125.819 14.5876 125.635 14.662C125.451 14.7364 125.285 14.8498 125.149 14.9943C125.013 15.1388 124.91 15.3111 124.846 15.4993C124.783 15.6874 124.761 15.8871 124.782 16.0845V19.5969H123.597V13.593Z" fill="black"/>
<path d="M135.392 12.0986V13.6208H136.692V14.6188H135.392V17.7061C135.392 18.335 135.651 18.6103 136.24 18.6103C136.391 18.6099 136.542 18.6007 136.692 18.583V19.57C136.48 19.608 136.264 19.6283 136.048 19.6305C134.73 19.6305 134.205 19.167 134.205 18.0094V14.6188H133.252V13.6207H134.205V12.0986H135.392Z" fill="black"/>
<path d="M138.311 11.2495H139.485V14.5581H139.579C139.737 14.2124 139.997 13.9236 140.324 13.7311C140.652 13.5386 141.031 13.4519 141.41 13.4826C141.7 13.4668 141.991 13.5153 142.261 13.6247C142.53 13.7341 142.772 13.9016 142.97 14.1154C143.167 14.3292 143.315 14.5839 143.403 14.8615C143.491 15.139 143.516 15.4324 143.477 15.7209V19.5972H142.291V16.0132C142.291 15.0542 141.845 14.5685 141.007 14.5685C140.804 14.5518 140.599 14.5798 140.407 14.6505C140.216 14.7213 140.042 14.8331 139.898 14.978C139.754 15.123 139.643 15.2977 139.574 15.4899C139.504 15.6821 139.478 15.8871 139.496 16.0906V19.5972H138.311L138.311 11.2495Z" fill="black"/>
<path d="M150.386 17.9758C150.225 18.5246 149.876 18.9992 149.401 19.3167C148.925 19.6343 148.353 19.7745 147.785 19.7128C147.389 19.7233 146.996 19.6475 146.633 19.4908C146.269 19.3341 145.944 19.1002 145.681 18.8053C145.417 18.5105 145.22 18.1617 145.105 17.7833C144.989 17.4049 144.957 17.0058 145.011 16.6139C144.959 16.2207 144.991 15.8208 145.106 15.4412C145.222 15.0617 145.417 14.7113 145.68 14.4139C145.942 14.1164 146.265 13.8789 146.628 13.7173C146.99 13.5557 147.383 13.4738 147.779 13.4772C149.45 13.4772 150.458 14.6185 150.458 16.5038V16.9173H146.218V16.9837C146.2 17.204 146.227 17.4258 146.3 17.6348C146.372 17.8438 146.487 18.0354 146.637 18.1973C146.788 18.3593 146.971 18.488 147.174 18.5752C147.377 18.6624 147.596 18.7061 147.817 18.7037C148.101 18.7377 148.388 18.6867 148.642 18.557C148.896 18.4274 149.107 18.2251 149.246 17.9758L150.386 17.9758ZM146.218 16.0409H149.251C149.266 15.8394 149.238 15.637 149.17 15.4468C149.102 15.2565 148.995 15.0825 148.856 14.936C148.717 14.7895 148.549 14.6738 148.362 14.5962C148.176 14.5187 147.975 14.481 147.773 14.4856C147.568 14.483 147.365 14.5215 147.175 14.5988C146.985 14.676 146.812 14.7905 146.668 14.9355C146.523 15.0804 146.408 15.2529 146.331 15.4428C146.254 15.6326 146.216 15.836 146.218 16.0409H146.218Z" fill="black"/>
</svg>
