<svg width="80" height="24" viewBox="0 0 80 24" fill="none" xmlns="http://www.w3.org/2000/svg">
<g clip-path="url(#clip0_93_23)">
<path d="M0.00927734 4.33228H2.79865V10.5295H8.68162V4.33228H11.4746V19.5445H8.68162V13.2171H2.79865V19.5445H0.00927734V4.33228ZM20.3113 14.5896C20.3113 15.8631 19.2738 16.8993 18.0007 16.8993C16.7271 16.8993 15.6902 15.8631 15.6902 14.5896V8.04024H13.0449V14.5896C13.0449 17.322 15.2682 19.5445 18.0007 19.5445C20.7326 19.5445 22.9557 17.322 22.9557 14.5896V8.04024H20.3113V14.5896ZM30.3404 8.11696C29.0282 8.11696 28.1122 8.49774 27.2277 9.36603V4.33228H24.5738V13.6612C24.5738 17.1531 27.0985 19.5445 29.9349 19.5445C33.0882 19.5445 35.851 17.1104 35.851 13.8309C35.851 10.5929 33.3033 8.11696 30.3404 8.11696ZM30.4063 17.0893C28.608 17.0893 27.2329 15.5874 27.2329 13.8309C27.2329 12.074 28.608 10.5717 30.4063 10.5717C31.9301 10.5717 33.306 12.074 33.306 13.8309C33.306 15.5874 31.9301 17.0893 30.4063 17.0893ZM40.3083 8.78556C40.3083 7.45149 41.1972 7.02853 42.1704 7.02853C42.9538 7.02853 43.9905 7.62103 44.6671 8.34071L46.4019 6.30931C45.5349 5.14556 43.7788 4.34118 42.3397 4.34118C39.4615 4.34118 37.3876 6.01306 37.3876 8.78556C37.3876 13.9277 43.7152 12.2977 43.7152 15.1765C43.7152 16.0643 42.8479 16.8481 41.8538 16.8481C40.2872 16.8481 39.7791 16.0862 39.0599 15.2818L37.1338 17.2707C38.3619 18.7734 39.8851 19.5356 41.7052 19.5356C44.4349 19.5356 46.6358 17.8426 46.6358 15.197C46.6358 9.48352 40.3083 11.2613 40.3083 8.78556ZM53.6224 7.9679C50.7863 7.9679 48.2613 10.3579 48.2613 13.8506V23.2035H50.9151V18.1459C51.7997 19.0135 52.7152 19.3949 54.0279 19.3949C56.9907 19.3949 59.5386 16.9193 59.5386 13.6813C59.5386 10.4013 56.7751 7.9679 53.6224 7.9679ZM54.094 16.9406C52.2958 16.9406 50.9205 15.4367 50.9205 13.6813C50.9205 11.9245 52.2958 10.4221 54.094 10.4221C55.6174 10.4221 56.9935 11.9245 56.9935 13.6813C56.9935 15.4367 55.6174 16.9406 54.094 16.9406ZM79.0732 17.0893C77.5079 17.0893 77.0635 16.4124 77.0635 15.3751V10.7832H79.4966V8.45571H77.0635V5.38696L74.3768 6.5929V15.9465C74.3768 18.3381 76.0268 19.5445 78.2901 19.5445C78.6286 19.5445 79.0947 19.5226 79.349 19.4599L80.0051 17.0477C79.7088 17.0682 79.3704 17.0893 79.0732 17.0893Z" fill="#45535E"/>
<path d="M72.0746 10.9184C71.5659 10.043 70.8503 9.34132 69.9556 8.81304C69.287 8.42382 68.5937 8.17679 67.8125 8.07069V5.28944C68.5937 4.95772 69.0785 4.22351 69.0785 3.36694C69.0785 2.19944 68.1423 1.25335 66.9757 1.25335C65.8082 1.25335 64.8556 2.19944 64.8556 3.36694C64.8556 4.22351 65.3125 4.95772 66.0937 5.28944V8.07194C65.4687 8.16226 64.8206 8.3571 64.2287 8.65648C63.0198 7.73835 59.0557 4.72632 56.7368 2.9671C56.7918 2.76882 56.8342 2.56444 56.8342 2.34882C56.8342 1.05569 55.787 0.00756836 54.4934 0.00756836C53.1998 0.00756836 52.1531 1.05569 52.1531 2.34882C52.1531 3.64179 53.2009 4.69022 54.4945 4.69022C54.9357 4.69022 55.3439 4.56116 55.696 4.34897L56.1854 4.72022L62.9098 9.56522C62.5543 9.89163 62.2232 10.2629 61.9584 10.6794C61.4217 11.5287 61.0937 12.463 61.0937 13.4823V13.6949C61.0937 14.4104 61.2296 15.0859 61.4612 15.7204C61.6651 16.2744 61.9632 16.7782 62.3325 17.2337L60.1007 19.4708C59.7773 19.3505 59.426 19.3258 59.0889 19.3997C58.7519 19.4736 58.4432 19.643 58.1998 19.8877C58.0313 20.0554 57.8977 20.2549 57.8069 20.4745C57.716 20.6942 57.6696 20.9297 57.6704 21.1674C57.6706 21.6507 57.8589 22.1049 58.2007 22.4466C58.3683 22.6153 58.5677 22.749 58.7873 22.84C59.0069 22.931 59.2424 22.9776 59.4801 22.9769C59.7179 22.9776 59.9535 22.931 60.1731 22.84C60.3928 22.7489 60.5923 22.6152 60.76 22.4466C60.9284 22.279 61.0619 22.0796 61.1528 21.86C61.2437 21.6405 61.2902 21.4051 61.2896 21.1674C61.2896 20.9804 61.2607 20.7979 61.2064 20.6244L63.5131 18.3174C63.8293 18.5358 64.1709 18.7198 64.5381 18.8783C65.2623 19.1915 66.0617 19.3823 66.9365 19.3823H67.0968C68.064 19.3823 68.9764 19.1551 69.834 18.6904C70.7378 18.1993 71.4451 17.5277 71.9795 16.6704C72.5167 15.8107 72.8125 14.8608 72.8125 13.8158V13.7637C72.8125 12.7357 72.5745 11.7873 72.0746 10.9184ZM69.2562 15.7579C68.6301 16.4537 67.9104 16.8823 67.0968 16.8823H66.9628C66.4981 16.8823 66.0435 16.7538 65.5985 16.5202C65.097 16.263 64.7157 15.8962 64.4037 15.4316C64.0812 14.9757 63.9062 14.4779 63.9062 13.9501V13.7898C63.9062 13.2709 64.0057 12.7788 64.2567 12.3141C64.525 11.8062 64.8873 11.4112 65.3692 11.0971C65.8423 10.7852 66.3476 10.6323 66.9104 10.6323H66.9628C67.4731 10.6323 67.9562 10.7329 68.4121 10.9662C68.8767 11.2149 69.2562 11.5548 69.5504 12.0018C69.8362 12.449 70.0062 12.9313 70.0609 13.4568C70.0695 13.566 70.0739 13.6779 70.0739 13.7848C70.0739 14.4979 69.8014 15.1583 69.2562 15.7579Z" fill="#F8761F"/>
</g>
<defs>
<clipPath id="clip0_93_23">
<rect width="80" height="23.296" fill="white"/>
</clipPath>
</defs>
</svg>
