<svg width="32" height="32" viewBox="0 0 32 32" fill="none" xmlns="http://www.w3.org/2000/svg">
<path opacity="0.1" fill-rule="evenodd" clip-rule="evenodd" d="M0 16C0 7.16344 7.16344 0 16 0C24.8366 0 32 7.16344 32 16C32 24.8366 24.8366 32 16 32C7.16344 32 0 24.8366 0 16Z" fill="white"/>
<path fill-rule="evenodd" clip-rule="evenodd" d="M16.0009 7C13.6834 7 13.3925 7.01013 12.4823 7.05156C11.5739 7.09316 10.9538 7.23698 10.4112 7.448C9.84993 7.66596 9.37384 7.95752 8.89952 8.43201C8.42485 8.90633 8.13329 9.38242 7.91462 9.9435C7.70307 10.4863 7.55906 11.1065 7.51818 12.0146C7.47746 12.9249 7.4668 13.2159 7.4668 15.5334C7.4668 17.851 7.47711 18.1409 7.51835 19.0511C7.56013 19.9596 7.70395 20.5797 7.9148 21.1223C8.13294 21.6835 8.4245 22.1596 8.89899 22.6339C9.37313 23.1086 9.84922 23.4009 10.4101 23.6188C10.9531 23.8299 11.5733 23.9737 12.4816 24.0153C13.3918 24.0567 13.6825 24.0668 15.9999 24.0668C18.3176 24.0668 18.6075 24.0567 19.5178 24.0153C20.4262 23.9737 21.047 23.8299 21.59 23.6188C22.151 23.4009 22.6264 23.1086 23.1006 22.6339C23.5752 22.1596 23.8668 21.6835 24.0855 21.1225C24.2952 20.5797 24.4392 19.9594 24.4819 19.0513C24.5228 18.1411 24.5335 17.851 24.5335 15.5334C24.5335 13.2159 24.5228 12.925 24.4819 12.0148C24.4392 11.1064 24.2952 10.4863 24.0855 9.94368C23.8668 9.38242 23.5752 8.90633 23.1006 8.43201C22.6259 7.95734 22.1512 7.66578 21.5894 7.448C21.0454 7.23698 20.425 7.09316 19.5165 7.05156C18.6063 7.01013 18.3165 7 15.9983 7H16.0009ZM15.2354 8.53777C15.4626 8.53741 15.7161 8.53777 16.0009 8.53777C18.2793 8.53777 18.5494 8.54595 19.4491 8.58684C20.2811 8.62488 20.7327 8.76391 21.0335 8.88071C21.4317 9.03537 21.7156 9.22027 22.0141 9.51894C22.3128 9.81761 22.4977 10.1021 22.6527 10.5003C22.7695 10.8007 22.9087 11.2523 22.9466 12.0843C22.9875 12.9839 22.9963 13.2541 22.9963 15.5314C22.9963 17.8088 22.9875 18.079 22.9466 18.9786C22.9085 19.8106 22.7695 20.2622 22.6527 20.5626C22.498 20.9608 22.3128 21.2444 22.0141 21.5429C21.7154 21.8416 21.4319 22.0264 21.0335 22.1811C20.733 22.2984 20.2811 22.4371 19.4491 22.4752C18.5495 22.5161 18.2793 22.5249 16.0009 22.5249C13.7223 22.5249 13.4522 22.5161 12.5527 22.4752C11.7207 22.4368 11.2691 22.2977 10.9681 22.1809C10.5699 22.0263 10.2855 21.8414 9.98679 21.5427C9.68812 21.244 9.50323 20.9603 9.3482 20.5619C9.2314 20.2614 9.0922 19.8099 9.05433 18.9779C9.01344 18.0783 9.00527 17.8081 9.00527 15.5293C9.00527 13.2505 9.01344 12.9817 9.05433 12.0822C9.09238 11.2502 9.2314 10.7986 9.3482 10.4978C9.50287 10.0996 9.68812 9.81512 9.98679 9.51645C10.2855 9.21778 10.5699 9.03289 10.9681 8.87786C11.2689 8.76053 11.7207 8.62186 12.5527 8.58364C13.3399 8.54808 13.645 8.53741 15.2354 8.53564V8.53777ZM20.556 9.95468C19.9906 9.95468 19.532 10.4128 19.532 10.9783C19.532 11.5437 19.9906 12.0023 20.556 12.0023C21.1213 12.0023 21.58 11.5437 21.58 10.9783C21.58 10.413 21.1213 9.95468 20.556 9.95468ZM16.0009 11.1511C13.5808 11.1511 11.6187 13.1133 11.6187 15.5334C11.6187 17.9535 13.5808 19.9148 16.0009 19.9148C18.4211 19.9148 20.3825 17.9535 20.3825 15.5334C20.3825 13.1133 18.4211 11.1511 16.0009 11.1511ZM16.0009 12.6889C17.5718 12.6889 18.8454 13.9624 18.8454 15.5334C18.8454 17.1043 17.5718 18.3779 16.0009 18.3779C14.4299 18.3779 13.1564 17.1043 13.1564 15.5334C13.1564 13.9624 14.4299 12.6889 16.0009 12.6889Z" fill="white"/>
</svg>
