<svg width="80" height="35" viewBox="0 0 80 35" fill="none" xmlns="http://www.w3.org/2000/svg">
<path fill-rule="evenodd" clip-rule="evenodd" d="M79.3939 18.9189C79.3939 20.6604 76.6806 22.0721 73.3333 22.0721H6.66667C3.3194 22.0721 0.606064 20.6604 0.606064 18.9189C0.606064 17.1774 3.3194 15.7658 6.66667 15.7658H73.3333C76.6806 15.7658 79.3939 17.1774 79.3939 18.9189ZM15.7576 25.2252H6.66667C6.66667 30.4497 14.8067 34.6847 24.8485 34.6847H55.1515C65.1933 34.6847 73.3333 30.4497 73.3333 25.2252H15.7576ZM12.7273 12.6126H6.66667V6.30631C6.66667 2.82333 12.0933 0 18.7879 0H61.2121C67.9067 0 73.3333 2.82333 73.3333 6.30631V12.6126H12.7273ZM61.2121 7.88288C61.2121 8.75347 62.5691 9.45946 64.2424 9.45946C65.9158 9.45946 67.2727 8.75347 67.2727 7.88288C67.2727 7.0123 65.9158 6.30631 64.2424 6.30631C62.5691 6.30631 61.2121 7.0123 61.2121 7.88288ZM49.0909 4.72973C49.0909 5.60032 50.4479 6.30631 52.1212 6.30631C53.7945 6.30631 55.1515 5.60032 55.1515 4.72973C55.1515 3.85914 53.7945 3.15315 52.1212 3.15315C50.4479 3.15315 49.0909 3.85914 49.0909 4.72973ZM36.9697 7.88288C36.9697 8.75347 38.3267 9.45946 40 9.45946C41.6733 9.45946 43.0303 8.75347 43.0303 7.88288C43.0303 7.0123 41.6733 6.30631 40 6.30631C38.3267 6.30631 36.9697 7.0123 36.9697 7.88288ZM24.8485 4.72973C24.8485 5.60032 26.2055 6.30631 27.8788 6.30631C29.5521 6.30631 30.9091 5.60032 30.9091 4.72973C30.9091 3.85914 29.5521 3.15315 27.8788 3.15315C26.2055 3.15315 24.8485 3.85914 24.8485 4.72973ZM12.7273 7.88288C12.7273 8.75347 14.0842 9.45946 15.7576 9.45946C17.4309 9.45946 18.7879 8.75347 18.7879 7.88288C18.7879 7.0123 17.4309 6.30631 15.7576 6.30631C14.0842 6.30631 12.7273 7.0123 12.7273 7.88288Z" fill="#FD0B7D"/>
</svg>
