<svg width="753" height="133" viewBox="0 0 753 133" fill="none" xmlns="http://www.w3.org/2000/svg">
<path d="M112.341 0.454544H122.659L136.477 34.1818H137.023L150.841 0.454544H161.159V47H153.068V15.0227H152.636L139.773 46.8636H133.727L120.864 14.9545H120.432V47H112.341V0.454544ZM180.023 47.7045C177.811 47.7045 175.818 47.3106 174.045 46.5227C172.288 45.7197 170.894 44.5379 169.864 42.9773C168.848 41.4167 168.341 39.4924 168.341 37.2045C168.341 35.2348 168.705 33.6061 169.432 32.3182C170.159 31.0303 171.152 30 172.409 29.2273C173.667 28.4545 175.083 27.8712 176.659 27.4773C178.25 27.0682 179.894 26.7727 181.591 26.5909C183.636 26.3788 185.295 26.1894 186.568 26.0227C187.841 25.8409 188.765 25.5682 189.341 25.2045C189.932 24.8258 190.227 24.2424 190.227 23.4545V23.3182C190.227 21.6061 189.72 20.2803 188.705 19.3409C187.689 18.4015 186.227 17.9318 184.318 17.9318C182.303 17.9318 180.705 18.3712 179.523 19.25C178.356 20.1288 177.568 21.1667 177.159 22.3636L169.477 21.2727C170.083 19.1515 171.083 17.3788 172.477 15.9545C173.871 14.5151 175.576 13.4394 177.591 12.7273C179.606 12 181.833 11.6364 184.273 11.6364C185.955 11.6364 187.629 11.8333 189.295 12.2273C190.962 12.6212 192.485 13.2727 193.864 14.1818C195.242 15.0758 196.348 16.2955 197.182 17.8409C198.03 19.3864 198.455 21.3182 198.455 23.6364V47H190.545V42.2045H190.273C189.773 43.1742 189.068 44.0833 188.159 44.9318C187.265 45.7652 186.136 46.4394 184.773 46.9545C183.424 47.4545 181.841 47.7045 180.023 47.7045ZM182.159 41.6591C183.811 41.6591 185.242 41.3333 186.455 40.6818C187.667 40.0152 188.598 39.1364 189.25 38.0455C189.917 36.9545 190.25 35.7652 190.25 34.4773V30.3636C189.992 30.5758 189.553 30.7727 188.932 30.9545C188.326 31.1364 187.644 31.2955 186.886 31.4318C186.129 31.5682 185.379 31.6894 184.636 31.7955C183.894 31.9015 183.25 31.9924 182.705 32.0682C181.477 32.2348 180.379 32.5076 179.409 32.8864C178.439 33.2652 177.674 33.7955 177.114 34.4773C176.553 35.1439 176.273 36.0076 176.273 37.0682C176.273 38.5833 176.826 39.7273 177.932 40.5C179.038 41.2727 180.447 41.6591 182.159 41.6591ZM214.955 26.5455V47H206.727V12.0909H214.591V18.0227H215C215.803 16.0682 217.083 14.5152 218.841 13.3636C220.614 12.2121 222.803 11.6364 225.409 11.6364C227.818 11.6364 229.917 12.1515 231.705 13.1818C233.508 14.2121 234.902 15.7045 235.886 17.6591C236.886 19.6136 237.379 21.9848 237.364 24.7727V47H229.136V26.0455C229.136 23.7121 228.53 21.8864 227.318 20.5682C226.121 19.25 224.462 18.5909 222.341 18.5909C220.902 18.5909 219.621 18.9091 218.5 19.5455C217.394 20.1667 216.523 21.0682 215.886 22.25C215.265 23.4318 214.955 24.8636 214.955 26.5455ZM255.773 47.7045C253.561 47.7045 251.568 47.3106 249.795 46.5227C248.038 45.7197 246.644 44.5379 245.614 42.9773C244.598 41.4167 244.091 39.4924 244.091 37.2045C244.091 35.2348 244.455 33.6061 245.182 32.3182C245.909 31.0303 246.902 30 248.159 29.2273C249.417 28.4545 250.833 27.8712 252.409 27.4773C254 27.0682 255.644 26.7727 257.341 26.5909C259.386 26.3788 261.045 26.1894 262.318 26.0227C263.591 25.8409 264.515 25.5682 265.091 25.2045C265.682 24.8258 265.977 24.2424 265.977 23.4545V23.3182C265.977 21.6061 265.47 20.2803 264.455 19.3409C263.439 18.4015 261.977 17.9318 260.068 17.9318C258.053 17.9318 256.455 18.3712 255.273 19.25C254.106 20.1288 253.318 21.1667 252.909 22.3636L245.227 21.2727C245.833 19.1515 246.833 17.3788 248.227 15.9545C249.621 14.5151 251.326 13.4394 253.341 12.7273C255.356 12 257.583 11.6364 260.023 11.6364C261.705 11.6364 263.379 11.8333 265.045 12.2273C266.712 12.6212 268.235 13.2727 269.614 14.1818C270.992 15.0758 272.098 16.2955 272.932 17.8409C273.78 19.3864 274.205 21.3182 274.205 23.6364V47H266.295V42.2045H266.023C265.523 43.1742 264.818 44.0833 263.909 44.9318C263.015 45.7652 261.886 46.4394 260.523 46.9545C259.174 47.4545 257.591 47.7045 255.773 47.7045ZM257.909 41.6591C259.561 41.6591 260.992 41.3333 262.205 40.6818C263.417 40.0152 264.348 39.1364 265 38.0455C265.667 36.9545 266 35.7652 266 34.4773V30.3636C265.742 30.5758 265.303 30.7727 264.682 30.9545C264.076 31.1364 263.394 31.2955 262.636 31.4318C261.879 31.5682 261.129 31.6894 260.386 31.7955C259.644 31.9015 259 31.9924 258.455 32.0682C257.227 32.2348 256.129 32.5076 255.159 32.8864C254.189 33.2652 253.424 33.7955 252.864 34.4773C252.303 35.1439 252.023 36.0076 252.023 37.0682C252.023 38.5833 252.576 39.7273 253.682 40.5C254.788 41.2727 256.197 41.6591 257.909 41.6591ZM297.659 60.8182C294.705 60.8182 292.167 60.4167 290.045 59.6136C287.924 58.8258 286.22 57.7652 284.932 56.4318C283.644 55.0985 282.75 53.6212 282.25 52L289.659 50.2045C289.992 50.8864 290.477 51.5606 291.114 52.2273C291.75 52.9091 292.606 53.4697 293.682 53.9091C294.773 54.3636 296.144 54.5909 297.795 54.5909C300.129 54.5909 302.061 54.0227 303.591 52.8864C305.121 51.7652 305.886 49.9167 305.886 47.3409V40.7273H305.477C305.053 41.5758 304.432 42.447 303.614 43.3409C302.811 44.2348 301.742 44.9848 300.409 45.5909C299.091 46.197 297.432 46.5 295.432 46.5C292.75 46.5 290.318 45.8712 288.136 44.6136C285.97 43.3409 284.242 41.447 282.955 38.9318C281.682 36.4015 281.045 33.2348 281.045 29.4318C281.045 25.5985 281.682 22.3636 282.955 19.7273C284.242 17.0758 285.977 15.0682 288.159 13.7045C290.341 12.3258 292.773 11.6364 295.455 11.6364C297.5 11.6364 299.182 11.9848 300.5 12.6818C301.833 13.3636 302.894 14.1894 303.682 15.1591C304.47 16.1136 305.068 17.0152 305.477 17.8636H305.932V12.0909H314.045V47.5682C314.045 50.553 313.333 53.0227 311.909 54.9773C310.485 56.9318 308.538 58.3939 306.068 59.3636C303.598 60.3333 300.795 60.8182 297.659 60.8182ZM297.727 40.0455C299.47 40.0455 300.955 39.6212 302.182 38.7727C303.409 37.9242 304.341 36.7045 304.977 35.1136C305.614 33.5227 305.932 31.6136 305.932 29.3864C305.932 27.1894 305.614 25.2652 304.977 23.6136C304.356 21.9621 303.432 20.6818 302.205 19.7727C300.992 18.8485 299.5 18.3864 297.727 18.3864C295.894 18.3864 294.364 18.8636 293.136 19.8182C291.909 20.7727 290.985 22.0833 290.364 23.75C289.742 25.4015 289.432 27.2803 289.432 29.3864C289.432 31.5227 289.742 33.3939 290.364 35C291 36.5909 291.932 37.8333 293.159 38.7273C294.402 39.6061 295.924 40.0455 297.727 40.0455ZM337.932 47.6818C334.432 47.6818 331.409 46.9545 328.864 45.5C326.333 44.0303 324.386 41.9545 323.023 39.2727C321.659 36.5758 320.977 33.4015 320.977 29.75C320.977 26.1591 321.659 23.0076 323.023 20.2955C324.402 17.5682 326.326 15.447 328.795 13.9318C331.265 12.4015 334.167 11.6364 337.5 11.6364C339.652 11.6364 341.682 11.9848 343.591 12.6818C345.515 13.3636 347.212 14.4242 348.682 15.8636C350.167 17.303 351.333 19.1364 352.182 21.3636C353.03 23.5758 353.455 26.2121 353.455 29.2727V31.7955H324.841V26.25H345.568C345.553 24.6742 345.212 23.2727 344.545 22.0455C343.879 20.803 342.947 19.8258 341.75 19.1136C340.568 18.4015 339.189 18.0455 337.614 18.0455C335.932 18.0455 334.455 18.4545 333.182 19.2727C331.909 20.0758 330.917 21.1364 330.205 22.4545C329.508 23.7576 329.152 25.1894 329.136 26.75V31.5909C329.136 33.6212 329.508 35.3636 330.25 36.8182C330.992 38.2576 332.03 39.3636 333.364 40.1364C334.697 40.8939 336.258 41.2727 338.045 41.2727C339.242 41.2727 340.326 41.1061 341.295 40.7727C342.265 40.4242 343.106 39.9167 343.818 39.25C344.53 38.5833 345.068 37.7576 345.432 36.7727L353.114 37.6364C352.629 39.6667 351.705 41.4394 350.341 42.9545C348.992 44.4545 347.265 45.6212 345.159 46.4545C343.053 47.2727 340.644 47.6818 337.932 47.6818ZM393.722 12.0909V18.4545H373.653V12.0909H393.722ZM378.608 3.72727H386.835V36.5C386.835 37.6061 387.002 38.4545 387.335 39.0455C387.684 39.6212 388.138 40.0152 388.699 40.2273C389.259 40.4394 389.881 40.5455 390.562 40.5455C391.078 40.5455 391.547 40.5076 391.972 40.4318C392.411 40.3561 392.744 40.2879 392.972 40.2273L394.358 46.6591C393.919 46.8106 393.29 46.9773 392.472 47.1591C391.669 47.3409 390.684 47.447 389.517 47.4773C387.456 47.5379 385.6 47.2273 383.949 46.5455C382.297 45.8485 380.987 44.7727 380.017 43.3182C379.063 41.8636 378.593 40.0455 378.608 37.8636V3.72727ZM409.58 26.5455V47H401.352V0.454544H409.398V18.0227H409.807C410.625 16.053 411.89 14.5 413.602 13.3636C415.33 12.2121 417.527 11.6364 420.193 11.6364C422.617 11.6364 424.731 12.1439 426.534 13.1591C428.337 14.1742 429.731 15.6591 430.716 17.6136C431.716 19.5682 432.216 21.9545 432.216 24.7727V47H423.989V26.0455C423.989 23.697 423.383 21.8712 422.17 20.5682C420.973 19.25 419.292 18.5909 417.125 18.5909C415.67 18.5909 414.367 18.9091 413.216 19.5455C412.08 20.1667 411.186 21.0682 410.534 22.25C409.898 23.4318 409.58 24.8636 409.58 26.5455ZM456.057 47.6818C452.557 47.6818 449.534 46.9545 446.989 45.5C444.458 44.0303 442.511 41.9545 441.148 39.2727C439.784 36.5758 439.102 33.4015 439.102 29.75C439.102 26.1591 439.784 23.0076 441.148 20.2955C442.527 17.5682 444.451 15.447 446.92 13.9318C449.39 12.4015 452.292 11.6364 455.625 11.6364C457.777 11.6364 459.807 11.9848 461.716 12.6818C463.64 13.3636 465.337 14.4242 466.807 15.8636C468.292 17.303 469.458 19.1364 470.307 21.3636C471.155 23.5758 471.58 26.2121 471.58 29.2727V31.7955H442.966V26.25H463.693C463.678 24.6742 463.337 23.2727 462.67 22.0455C462.004 20.803 461.072 19.8258 459.875 19.1136C458.693 18.4015 457.314 18.0455 455.739 18.0455C454.057 18.0455 452.58 18.4545 451.307 19.2727C450.034 20.0758 449.042 21.1364 448.33 22.4545C447.633 23.7576 447.277 25.1894 447.261 26.75V31.5909C447.261 33.6212 447.633 35.3636 448.375 36.8182C449.117 38.2576 450.155 39.3636 451.489 40.1364C452.822 40.8939 454.383 41.2727 456.17 41.2727C457.367 41.2727 458.451 41.1061 459.42 40.7727C460.39 40.4242 461.231 39.9167 461.943 39.25C462.655 38.5833 463.193 37.7576 463.557 36.7727L471.239 37.6364C470.754 39.6667 469.83 41.4394 468.466 42.9545C467.117 44.4545 465.39 45.6212 463.284 46.4545C461.178 47.2727 458.769 47.6818 456.057 47.6818ZM511.847 12.0909V18.4545H491.778V12.0909H511.847ZM496.733 3.72727H504.96V36.5C504.96 37.6061 505.127 38.4545 505.46 39.0455C505.809 39.6212 506.263 40.0152 506.824 40.2273C507.384 40.4394 508.006 40.5455 508.688 40.5455C509.203 40.5455 509.672 40.5076 510.097 40.4318C510.536 40.3561 510.869 40.2879 511.097 40.2273L512.483 46.6591C512.044 46.8106 511.415 46.9773 510.597 47.1591C509.794 47.3409 508.809 47.447 507.642 47.4773C505.581 47.5379 503.725 47.2273 502.074 46.5455C500.422 45.8485 499.112 44.7727 498.142 43.3182C497.188 41.8636 496.718 40.0455 496.733 37.8636V3.72727ZM533.807 47.6818C530.307 47.6818 527.284 46.9545 524.739 45.5C522.208 44.0303 520.261 41.9545 518.898 39.2727C517.534 36.5758 516.852 33.4015 516.852 29.75C516.852 26.1591 517.534 23.0076 518.898 20.2955C520.277 17.5682 522.201 15.447 524.67 13.9318C527.14 12.4015 530.042 11.6364 533.375 11.6364C535.527 11.6364 537.557 11.9848 539.466 12.6818C541.39 13.3636 543.087 14.4242 544.557 15.8636C546.042 17.303 547.208 19.1364 548.057 21.3636C548.905 23.5758 549.33 26.2121 549.33 29.2727V31.7955H520.716V26.25H541.443C541.428 24.6742 541.087 23.2727 540.42 22.0455C539.754 20.803 538.822 19.8258 537.625 19.1136C536.443 18.4015 535.064 18.0455 533.489 18.0455C531.807 18.0455 530.33 18.4545 529.057 19.2727C527.784 20.0758 526.792 21.1364 526.08 22.4545C525.383 23.7576 525.027 25.1894 525.011 26.75V31.5909C525.011 33.6212 525.383 35.3636 526.125 36.8182C526.867 38.2576 527.905 39.3636 529.239 40.1364C530.572 40.8939 532.133 41.2727 533.92 41.2727C535.117 41.2727 536.201 41.1061 537.17 40.7727C538.14 40.4242 538.981 39.9167 539.693 39.25C540.405 38.5833 540.943 37.7576 541.307 36.7727L548.989 37.6364C548.504 39.6667 547.58 41.4394 546.216 42.9545C544.867 44.4545 543.14 45.6212 541.034 46.4545C538.928 47.2727 536.519 47.6818 533.807 47.6818ZM566.335 47.7045C564.123 47.7045 562.131 47.3106 560.358 46.5227C558.6 45.7197 557.206 44.5379 556.176 42.9773C555.161 41.4167 554.653 39.4924 554.653 37.2045C554.653 35.2348 555.017 33.6061 555.744 32.3182C556.472 31.0303 557.464 30 558.722 29.2273C559.979 28.4545 561.396 27.8712 562.972 27.4773C564.563 27.0682 566.206 26.7727 567.903 26.5909C569.949 26.3788 571.608 26.1894 572.881 26.0227C574.153 25.8409 575.078 25.5682 575.653 25.2045C576.244 24.8258 576.54 24.2424 576.54 23.4545V23.3182C576.54 21.6061 576.032 20.2803 575.017 19.3409C574.002 18.4015 572.54 17.9318 570.631 17.9318C568.616 17.9318 567.017 18.3712 565.835 19.25C564.669 20.1288 563.881 21.1667 563.472 22.3636L555.79 21.2727C556.396 19.1515 557.396 17.3788 558.79 15.9545C560.184 14.5151 561.888 13.4394 563.903 12.7273C565.919 12 568.146 11.6364 570.585 11.6364C572.267 11.6364 573.941 11.8333 575.608 12.2273C577.275 12.6212 578.797 13.2727 580.176 14.1818C581.555 15.0758 582.661 16.2955 583.494 17.8409C584.343 19.3864 584.767 21.3182 584.767 23.6364V47H576.858V42.2045H576.585C576.085 43.1742 575.381 44.0833 574.472 44.9318C573.578 45.7652 572.449 46.4394 571.085 46.9545C569.737 47.4545 568.153 47.7045 566.335 47.7045ZM568.472 41.6591C570.123 41.6591 571.555 41.3333 572.767 40.6818C573.979 40.0152 574.911 39.1364 575.562 38.0455C576.229 36.9545 576.562 35.7652 576.562 34.4773V30.3636C576.305 30.5758 575.866 30.7727 575.244 30.9545C574.638 31.1364 573.956 31.2955 573.199 31.4318C572.441 31.5682 571.691 31.6894 570.949 31.7955C570.206 31.9015 569.563 31.9924 569.017 32.0682C567.79 32.2348 566.691 32.5076 565.722 32.8864C564.752 33.2652 563.987 33.7955 563.426 34.4773C562.866 35.1439 562.585 36.0076 562.585 37.0682C562.585 38.5833 563.138 39.7273 564.244 40.5C565.35 41.2727 566.759 41.6591 568.472 41.6591ZM593.04 47V12.0909H600.903V18.0227H601.312C602.04 16.0227 603.244 14.4621 604.926 13.3409C606.608 12.2045 608.616 11.6364 610.949 11.6364C613.312 11.6364 615.305 12.2121 616.926 13.3636C618.563 14.5 619.714 16.053 620.381 18.0227H620.744C621.517 16.0833 622.82 14.5379 624.653 13.3864C626.502 12.2197 628.691 11.6364 631.222 11.6364C634.434 11.6364 637.055 12.6515 639.085 14.6818C641.116 16.7121 642.131 19.6742 642.131 23.5682V47H633.881V24.8409C633.881 22.6742 633.305 21.0909 632.153 20.0909C631.002 19.0758 629.593 18.5682 627.926 18.5682C625.941 18.5682 624.388 19.1894 623.267 20.4318C622.161 21.6591 621.608 23.2576 621.608 25.2273V47H613.54V24.5C613.54 22.697 612.994 21.2576 611.903 20.1818C610.828 19.1061 609.419 18.5682 607.676 18.5682C606.494 18.5682 605.419 18.8712 604.449 19.4773C603.479 20.0682 602.706 20.9091 602.131 22C601.555 23.0758 601.267 24.3333 601.267 25.7727V47H593.04ZM16.9943 119.682C13.4943 119.682 10.4716 118.955 7.92614 117.5C5.39583 116.03 3.44886 113.955 2.08523 111.273C0.721591 108.576 0.0397727 105.402 0.0397727 101.75C0.0397727 98.1591 0.721591 95.0076 2.08523 92.2955C3.46402 89.5682 5.38826 87.447 7.85795 85.9318C10.3277 84.4015 13.2292 83.6364 16.5625 83.6364C18.714 83.6364 20.7443 83.9848 22.6534 84.6818C24.5777 85.3636 26.2746 86.4242 27.7443 87.8636C29.2292 89.303 30.3958 91.1364 31.2443 93.3636C32.0928 95.5758 32.517 98.2121 32.517 101.273V103.795H3.90341V98.25H24.6307C24.6155 96.6742 24.2746 95.2727 23.608 94.0455C22.9413 92.803 22.0095 91.8258 20.8125 91.1136C19.6307 90.4015 18.2519 90.0455 16.6761 90.0455C14.9943 90.0455 13.517 90.4545 12.2443 91.2727C10.9716 92.0758 9.97917 93.1364 9.26705 94.4545C8.57008 95.7576 8.21402 97.1894 8.19886 98.75V103.591C8.19886 105.621 8.57008 107.364 9.3125 108.818C10.0549 110.258 11.0928 111.364 12.4261 112.136C13.7595 112.894 15.3201 113.273 17.108 113.273C18.3049 113.273 19.3883 113.106 20.358 112.773C21.3277 112.424 22.1686 111.917 22.8807 111.25C23.5928 110.583 24.1307 109.758 24.4943 108.773L32.1761 109.636C31.6913 111.667 30.767 113.439 29.4034 114.955C28.0549 116.455 26.3277 117.621 24.2216 118.455C22.1155 119.273 19.7064 119.682 16.9943 119.682ZM69.6591 84.0909L57.2273 119H48.1364L35.7045 84.0909H44.4773L52.5 110.023H52.8636L60.9091 84.0909H69.6591ZM89.6193 119.682C86.1193 119.682 83.0966 118.955 80.5511 117.5C78.0208 116.03 76.0739 113.955 74.7102 111.273C73.3466 108.576 72.6648 105.402 72.6648 101.75C72.6648 98.1591 73.3466 95.0076 74.7102 92.2955C76.089 89.5682 78.0133 87.447 80.483 85.9318C82.9527 84.4015 85.8542 83.6364 89.1875 83.6364C91.339 83.6364 93.3693 83.9848 95.2784 84.6818C97.2027 85.3636 98.8996 86.4242 100.369 87.8636C101.854 89.303 103.021 91.1364 103.869 93.3636C104.718 95.5758 105.142 98.2121 105.142 101.273V103.795H76.5284V98.25H97.2557C97.2405 96.6742 96.8996 95.2727 96.233 94.0455C95.5663 92.803 94.6345 91.8258 93.4375 91.1136C92.2557 90.4015 90.8769 90.0455 89.3011 90.0455C87.6193 90.0455 86.142 90.4545 84.8693 91.2727C83.5966 92.0758 82.6042 93.1364 81.892 94.4545C81.1951 95.7576 80.839 97.1894 80.8239 98.75V103.591C80.8239 105.621 81.1951 107.364 81.9375 108.818C82.6799 110.258 83.7178 111.364 85.0511 112.136C86.3845 112.894 87.9451 113.273 89.733 113.273C90.9299 113.273 92.0133 113.106 92.983 112.773C93.9527 112.424 94.7936 111.917 95.5057 111.25C96.2178 110.583 96.7557 109.758 97.1193 108.773L104.801 109.636C104.316 111.667 103.392 113.439 102.028 114.955C100.68 116.455 98.9527 117.621 96.8466 118.455C94.7405 119.273 92.3314 119.682 89.6193 119.682ZM112.102 119V84.0909H120.08V89.9091H120.443C121.08 87.8939 122.17 86.3409 123.716 85.25C125.277 84.1439 127.057 83.5909 129.057 83.5909C129.511 83.5909 130.019 83.6136 130.58 83.6591C131.155 83.6894 131.633 83.7424 132.011 83.8182V91.3864C131.663 91.2652 131.11 91.1591 130.352 91.0682C129.61 90.9621 128.89 90.9091 128.193 90.9091C126.693 90.9091 125.345 91.2348 124.148 91.8864C122.966 92.5227 122.034 93.4091 121.352 94.5455C120.67 95.6818 120.33 96.9924 120.33 98.4773V119H112.102ZM143.653 132.091C142.532 132.091 141.494 132 140.54 131.818C139.6 131.652 138.85 131.455 138.29 131.227L140.199 124.818C141.396 125.167 142.464 125.333 143.403 125.318C144.343 125.303 145.169 125.008 145.881 124.432C146.608 123.871 147.222 122.932 147.722 121.614L148.426 119.727L135.767 84.0909H144.494L152.54 110.455H152.903L160.972 84.0909H169.722L155.744 123.227C155.093 125.076 154.229 126.659 153.153 127.977C152.078 129.311 150.759 130.326 149.199 131.023C147.653 131.735 145.805 132.091 143.653 132.091ZM189.455 119.682C186.045 119.682 183.091 118.932 180.591 117.432C178.091 115.932 176.152 113.833 174.773 111.136C173.409 108.439 172.727 105.288 172.727 101.682C172.727 98.0758 173.409 94.9167 174.773 92.2045C176.152 89.4924 178.091 87.3864 180.591 85.8864C183.091 84.3864 186.045 83.6364 189.455 83.6364C192.864 83.6364 195.818 84.3864 198.318 85.8864C200.818 87.3864 202.75 89.4924 204.114 92.2045C205.492 94.9167 206.182 98.0758 206.182 101.682C206.182 105.288 205.492 108.439 204.114 111.136C202.75 113.833 200.818 115.932 198.318 117.432C195.818 118.932 192.864 119.682 189.455 119.682ZM189.5 113.091C191.348 113.091 192.894 112.583 194.136 111.568C195.379 110.538 196.303 109.159 196.909 107.432C197.53 105.705 197.841 103.78 197.841 101.659C197.841 99.5227 197.53 97.5909 196.909 95.8636C196.303 94.1212 195.379 92.7348 194.136 91.7045C192.894 90.6742 191.348 90.1591 189.5 90.1591C187.606 90.1591 186.03 90.6742 184.773 91.7045C183.53 92.7348 182.598 94.1212 181.977 95.8636C181.371 97.5909 181.068 99.5227 181.068 101.659C181.068 103.78 181.371 105.705 181.977 107.432C182.598 109.159 183.53 110.538 184.773 111.568C186.03 112.583 187.606 113.091 189.5 113.091ZM221.392 98.5455V119H213.165V84.0909H221.028V90.0227H221.438C222.241 88.0682 223.521 86.5152 225.278 85.3636C227.051 84.2121 229.241 83.6364 231.847 83.6364C234.256 83.6364 236.354 84.1515 238.142 85.1818C239.945 86.2121 241.339 87.7045 242.324 89.6591C243.324 91.6136 243.816 93.9848 243.801 96.7727V119H235.574V98.0455C235.574 95.7121 234.968 93.8864 233.756 92.5682C232.559 91.25 230.9 90.5909 228.778 90.5909C227.339 90.5909 226.059 90.9091 224.938 91.5455C223.831 92.1667 222.96 93.0682 222.324 94.25C221.703 95.4318 221.392 96.8636 221.392 98.5455ZM267.619 119.682C264.119 119.682 261.097 118.955 258.551 117.5C256.021 116.03 254.074 113.955 252.71 111.273C251.347 108.576 250.665 105.402 250.665 101.75C250.665 98.1591 251.347 95.0076 252.71 92.2955C254.089 89.5682 256.013 87.447 258.483 85.9318C260.953 84.4015 263.854 83.6364 267.188 83.6364C269.339 83.6364 271.369 83.9848 273.278 84.6818C275.203 85.3636 276.9 86.4242 278.369 87.8636C279.854 89.303 281.021 91.1364 281.869 93.3636C282.718 95.5758 283.142 98.2121 283.142 101.273V103.795H254.528V98.25H275.256C275.241 96.6742 274.9 95.2727 274.233 94.0455C273.566 92.803 272.634 91.8258 271.438 91.1136C270.256 90.4015 268.877 90.0455 267.301 90.0455C265.619 90.0455 264.142 90.4545 262.869 91.2727C261.597 92.0758 260.604 93.1364 259.892 94.4545C259.195 95.7576 258.839 97.1894 258.824 98.75V103.591C258.824 105.621 259.195 107.364 259.938 108.818C260.68 110.258 261.718 111.364 263.051 112.136C264.384 112.894 265.945 113.273 267.733 113.273C268.93 113.273 270.013 113.106 270.983 112.773C271.953 112.424 272.794 111.917 273.506 111.25C274.218 110.583 274.756 109.758 275.119 108.773L282.801 109.636C282.316 111.667 281.392 113.439 280.028 114.955C278.68 116.455 276.953 117.621 274.847 118.455C272.741 119.273 270.331 119.682 267.619 119.682ZM313.182 119L303.318 84.0909H311.705L317.841 108.636H318.159L324.432 84.0909H332.727L339 108.5H339.341L345.386 84.0909H353.795L343.909 119H335.341L328.795 95.4091H328.318L321.773 119H313.182ZM369.585 119.705C367.373 119.705 365.381 119.311 363.608 118.523C361.85 117.72 360.456 116.538 359.426 114.977C358.411 113.417 357.903 111.492 357.903 109.205C357.903 107.235 358.267 105.606 358.994 104.318C359.722 103.03 360.714 102 361.972 101.227C363.229 100.455 364.646 99.8712 366.222 99.4773C367.813 99.0682 369.456 98.7727 371.153 98.5909C373.199 98.3788 374.858 98.1894 376.131 98.0227C377.403 97.8409 378.328 97.5682 378.903 97.2045C379.494 96.8258 379.79 96.2424 379.79 95.4545V95.3182C379.79 93.6061 379.282 92.2803 378.267 91.3409C377.252 90.4015 375.79 89.9318 373.881 89.9318C371.866 89.9318 370.267 90.3712 369.085 91.25C367.919 92.1288 367.131 93.1667 366.722 94.3636L359.04 93.2727C359.646 91.1515 360.646 89.3788 362.04 87.9545C363.434 86.5151 365.138 85.4394 367.153 84.7273C369.169 84 371.396 83.6364 373.835 83.6364C375.517 83.6364 377.191 83.8333 378.858 84.2273C380.525 84.6212 382.047 85.2727 383.426 86.1818C384.805 87.0758 385.911 88.2955 386.744 89.8409C387.593 91.3864 388.017 93.3182 388.017 95.6364V119H380.108V114.205H379.835C379.335 115.174 378.631 116.083 377.722 116.932C376.828 117.765 375.699 118.439 374.335 118.955C372.987 119.455 371.403 119.705 369.585 119.705ZM371.722 113.659C373.373 113.659 374.805 113.333 376.017 112.682C377.229 112.015 378.161 111.136 378.812 110.045C379.479 108.955 379.812 107.765 379.812 106.477V102.364C379.555 102.576 379.116 102.773 378.494 102.955C377.888 103.136 377.206 103.295 376.449 103.432C375.691 103.568 374.941 103.689 374.199 103.795C373.456 103.902 372.813 103.992 372.267 104.068C371.04 104.235 369.941 104.508 368.972 104.886C368.002 105.265 367.237 105.795 366.676 106.477C366.116 107.144 365.835 108.008 365.835 109.068C365.835 110.583 366.388 111.727 367.494 112.5C368.6 113.273 370.009 113.659 371.722 113.659ZM404.517 98.5455V119H396.29V84.0909H404.153V90.0227H404.562C405.366 88.0682 406.646 86.5152 408.403 85.3636C410.176 84.2121 412.366 83.6364 414.972 83.6364C417.381 83.6364 419.479 84.1515 421.267 85.1818C423.07 86.2121 424.464 87.7045 425.449 89.6591C426.449 91.6136 426.941 93.9848 426.926 96.7727V119H418.699V98.0455C418.699 95.7121 418.093 93.8864 416.881 92.5682C415.684 91.25 414.025 90.5909 411.903 90.5909C410.464 90.5909 409.184 90.9091 408.062 91.5455C406.956 92.1667 406.085 93.0682 405.449 94.25C404.828 95.4318 404.517 96.8636 404.517 98.5455ZM452.722 84.0909V90.4545H432.653V84.0909H452.722ZM437.608 75.7273H445.835V108.5C445.835 109.606 446.002 110.455 446.335 111.045C446.684 111.621 447.138 112.015 447.699 112.227C448.259 112.439 448.881 112.545 449.562 112.545C450.078 112.545 450.547 112.508 450.972 112.432C451.411 112.356 451.744 112.288 451.972 112.227L453.358 118.659C452.919 118.811 452.29 118.977 451.472 119.159C450.669 119.341 449.684 119.447 448.517 119.477C446.456 119.538 444.6 119.227 442.949 118.545C441.297 117.848 439.987 116.773 439.017 115.318C438.063 113.864 437.593 112.045 437.608 109.864V75.7273ZM486.693 93.3182L479.193 94.1364C478.981 93.3788 478.61 92.6667 478.08 92C477.564 91.3333 476.867 90.7955 475.989 90.3864C475.11 89.9773 474.034 89.7727 472.761 89.7727C471.049 89.7727 469.61 90.1439 468.443 90.8864C467.292 91.6288 466.723 92.5909 466.739 93.7727C466.723 94.7879 467.095 95.6136 467.852 96.25C468.625 96.8864 469.898 97.4091 471.67 97.8182L477.625 99.0909C480.928 99.803 483.383 100.932 484.989 102.477C486.61 104.023 487.428 106.045 487.443 108.545C487.428 110.742 486.784 112.682 485.511 114.364C484.254 116.03 482.504 117.333 480.261 118.273C478.019 119.212 475.443 119.682 472.534 119.682C468.261 119.682 464.822 118.788 462.216 117C459.61 115.197 458.057 112.689 457.557 109.477L465.58 108.705C465.943 110.28 466.716 111.47 467.898 112.273C469.08 113.076 470.617 113.477 472.511 113.477C474.466 113.477 476.034 113.076 477.216 112.273C478.413 111.47 479.011 110.477 479.011 109.295C479.011 108.295 478.625 107.47 477.852 106.818C477.095 106.167 475.913 105.667 474.307 105.318L468.352 104.068C465.004 103.371 462.527 102.197 460.92 100.545C459.314 98.8788 458.519 96.7727 458.534 94.2273C458.519 92.0758 459.102 90.2121 460.284 88.6364C461.481 87.0455 463.14 85.8182 465.261 84.9545C467.398 84.0758 469.86 83.6364 472.648 83.6364C476.739 83.6364 479.958 84.5076 482.307 86.25C484.67 87.9924 486.133 90.3485 486.693 93.3182ZM527.534 84.0909V90.4545H507.466V84.0909H527.534ZM512.42 75.7273H520.648V108.5C520.648 109.606 520.814 110.455 521.148 111.045C521.496 111.621 521.951 112.015 522.511 112.227C523.072 112.439 523.693 112.545 524.375 112.545C524.89 112.545 525.36 112.508 525.784 112.432C526.223 112.356 526.557 112.288 526.784 112.227L528.17 118.659C527.731 118.811 527.102 118.977 526.284 119.159C525.481 119.341 524.496 119.447 523.33 119.477C521.269 119.538 519.413 119.227 517.761 118.545C516.11 117.848 514.799 116.773 513.83 115.318C512.875 113.864 512.405 112.045 512.42 109.864V75.7273ZM549.267 119.682C545.858 119.682 542.903 118.932 540.403 117.432C537.903 115.932 535.964 113.833 534.585 111.136C533.222 108.439 532.54 105.288 532.54 101.682C532.54 98.0758 533.222 94.9167 534.585 92.2045C535.964 89.4924 537.903 87.3864 540.403 85.8864C542.903 84.3864 545.858 83.6364 549.267 83.6364C552.676 83.6364 555.631 84.3864 558.131 85.8864C560.631 87.3864 562.563 89.4924 563.926 92.2045C565.305 94.9167 565.994 98.0758 565.994 101.682C565.994 105.288 565.305 108.439 563.926 111.136C562.563 113.833 560.631 115.932 558.131 117.432C555.631 118.932 552.676 119.682 549.267 119.682ZM549.312 113.091C551.161 113.091 552.706 112.583 553.949 111.568C555.191 110.538 556.116 109.159 556.722 107.432C557.343 105.705 557.653 103.78 557.653 101.659C557.653 99.5227 557.343 97.5909 556.722 95.8636C556.116 94.1212 555.191 92.7348 553.949 91.7045C552.706 90.6742 551.161 90.1591 549.312 90.1591C547.419 90.1591 545.843 90.6742 544.585 91.7045C543.343 92.7348 542.411 94.1212 541.79 95.8636C541.184 97.5909 540.881 99.5227 540.881 101.659C540.881 103.78 541.184 105.705 541.79 107.432C542.411 109.159 543.343 110.538 544.585 111.568C545.843 112.583 547.419 113.091 549.312 113.091ZM589.216 119V72.4545H597.443V89.8636H597.784C598.208 89.0152 598.807 88.1136 599.58 87.1591C600.352 86.1894 601.398 85.3636 602.716 84.6818C604.034 83.9848 605.716 83.6364 607.761 83.6364C610.458 83.6364 612.89 84.3258 615.057 85.7045C617.239 87.0682 618.966 89.0909 620.239 91.7727C621.527 94.4394 622.17 97.7121 622.17 101.591C622.17 105.424 621.542 108.682 620.284 111.364C619.027 114.045 617.314 116.091 615.148 117.5C612.981 118.909 610.527 119.614 607.784 119.614C605.784 119.614 604.125 119.28 602.807 118.614C601.489 117.947 600.428 117.144 599.625 116.205C598.837 115.25 598.223 114.348 597.784 113.5H597.307V119H589.216ZM597.284 101.545C597.284 103.803 597.602 105.78 598.239 107.477C598.89 109.174 599.822 110.5 601.034 111.455C602.261 112.394 603.746 112.864 605.489 112.864C607.307 112.864 608.83 112.379 610.057 111.409C611.284 110.424 612.208 109.083 612.83 107.386C613.466 105.674 613.784 103.727 613.784 101.545C613.784 99.3788 613.473 97.4545 612.852 95.7727C612.231 94.0909 611.307 92.7727 610.08 91.8182C608.852 90.8636 607.322 90.3864 605.489 90.3864C603.731 90.3864 602.239 90.8485 601.011 91.7727C599.784 92.697 598.852 93.9924 598.216 95.6591C597.595 97.3258 597.284 99.2879 597.284 101.545ZM644.619 119.682C641.119 119.682 638.097 118.955 635.551 117.5C633.021 116.03 631.074 113.955 629.71 111.273C628.347 108.576 627.665 105.402 627.665 101.75C627.665 98.1591 628.347 95.0076 629.71 92.2955C631.089 89.5682 633.013 87.447 635.483 85.9318C637.953 84.4015 640.854 83.6364 644.188 83.6364C646.339 83.6364 648.369 83.9848 650.278 84.6818C652.203 85.3636 653.9 86.4242 655.369 87.8636C656.854 89.303 658.021 91.1364 658.869 93.3636C659.718 95.5758 660.142 98.2121 660.142 101.273V103.795H631.528V98.25H652.256C652.241 96.6742 651.9 95.2727 651.233 94.0455C650.566 92.803 649.634 91.8258 648.438 91.1136C647.256 90.4015 645.877 90.0455 644.301 90.0455C642.619 90.0455 641.142 90.4545 639.869 91.2727C638.597 92.0758 637.604 93.1364 636.892 94.4545C636.195 95.7576 635.839 97.1894 635.824 98.75V103.591C635.824 105.621 636.195 107.364 636.938 108.818C637.68 110.258 638.718 111.364 640.051 112.136C641.384 112.894 642.945 113.273 644.733 113.273C645.93 113.273 647.013 113.106 647.983 112.773C648.953 112.424 649.794 111.917 650.506 111.25C651.218 110.583 651.756 109.758 652.119 108.773L659.801 109.636C659.316 111.667 658.392 113.439 657.028 114.955C655.68 116.455 653.953 117.621 651.847 118.455C649.741 119.273 647.331 119.682 644.619 119.682ZM698.205 119.682C694.795 119.682 691.841 118.932 689.341 117.432C686.841 115.932 684.902 113.833 683.523 111.136C682.159 108.439 681.477 105.288 681.477 101.682C681.477 98.0758 682.159 94.9167 683.523 92.2045C684.902 89.4924 686.841 87.3864 689.341 85.8864C691.841 84.3864 694.795 83.6364 698.205 83.6364C701.614 83.6364 704.568 84.3864 707.068 85.8864C709.568 87.3864 711.5 89.4924 712.864 92.2045C714.242 94.9167 714.932 98.0758 714.932 101.682C714.932 105.288 714.242 108.439 712.864 111.136C711.5 113.833 709.568 115.932 707.068 117.432C704.568 118.932 701.614 119.682 698.205 119.682ZM698.25 113.091C700.098 113.091 701.644 112.583 702.886 111.568C704.129 110.538 705.053 109.159 705.659 107.432C706.28 105.705 706.591 103.78 706.591 101.659C706.591 99.5227 706.28 97.5909 705.659 95.8636C705.053 94.1212 704.129 92.7348 702.886 91.7045C701.644 90.6742 700.098 90.1591 698.25 90.1591C696.356 90.1591 694.78 90.6742 693.523 91.7045C692.28 92.7348 691.348 94.1212 690.727 95.8636C690.121 97.5909 689.818 99.5227 689.818 101.659C689.818 103.78 690.121 105.705 690.727 107.432C691.348 109.159 692.28 110.538 693.523 111.568C694.78 112.583 696.356 113.091 698.25 113.091ZM730.142 98.5455V119H721.915V84.0909H729.778V90.0227H730.188C730.991 88.0682 732.271 86.5152 734.028 85.3636C735.801 84.2121 737.991 83.6364 740.597 83.6364C743.006 83.6364 745.104 84.1515 746.892 85.1818C748.695 86.2121 750.089 87.7045 751.074 89.6591C752.074 91.6136 752.566 93.9848 752.551 96.7727V119H744.324V98.0455C744.324 95.7121 743.718 93.8864 742.506 92.5682C741.309 91.25 739.65 90.5909 737.528 90.5909C736.089 90.5909 734.809 90.9091 733.688 91.5455C732.581 92.1667 731.71 93.0682 731.074 94.25C730.453 95.4318 730.142 96.8636 730.142 98.5455Z" fill="#35414B"/>
</svg>
