<svg width="80" height="27" viewBox="0 0 80 27" fill="none" xmlns="http://www.w3.org/2000/svg">
<g clip-path="url(#clip0_93_3)">
<path d="M9.85285 0.00317383H10.5633C13.0337 0.0575739 15.4625 1.04958 17.2065 2.80958C16.5633 3.46878 15.9041 4.09918 15.2737 4.75518C14.2945 3.86878 13.1137 3.18398 11.8241 2.94398C9.91685 2.54078 7.86565 2.90238 6.26565 3.99038C4.52165 5.13278 3.34085 7.06558 3.08485 9.13279C2.80325 11.1744 3.37925 13.3216 4.71045 14.9056C5.98405 16.448 7.93285 17.4144 9.94565 17.4816C11.8241 17.5904 13.7857 17.0112 15.1553 15.696C16.2305 14.7712 16.7265 13.36 16.8865 11.9904C14.6593 11.9904 12.4289 12.0032 10.2017 11.9904V9.22559H19.5841C20.0673 12.192 19.3697 15.5328 17.1137 17.6544C15.6097 19.1584 13.5297 20.0448 11.4081 20.2176C9.35365 20.4192 7.23205 20.0288 5.40805 19.0368C3.21925 17.8688 1.47525 15.8944 0.617653 13.5744C-0.188747 11.44 -0.201547 9.02399 0.550453 6.87358C1.23525 4.91518 2.55045 3.18398 4.24325 1.97438C5.86565 0.780775 7.84005 0.121574 9.85285 0.00317383Z" fill="#3780FF"/>
<path d="M63.6768 0.700684H66.5504V19.8687C65.5968 19.8687 64.6304 19.8815 63.6768 19.8559C63.6928 13.4783 63.6768 7.08789 63.6768 0.700684Z" fill="#38B137"/>
<path d="M25.9743 7.34393C27.7439 7.00793 29.6639 7.38553 31.1263 8.44473C32.4542 9.38552 33.3822 10.8607 33.6638 12.4703C34.0254 14.3359 33.571 16.3775 32.3614 17.8527C31.0591 19.5039 28.9247 20.3903 26.8447 20.2559C24.9375 20.1471 23.0879 19.1967 21.9584 17.6383C20.6848 15.9199 20.3744 13.5583 21.072 11.5455C21.7728 9.38552 23.7439 7.73433 25.9743 7.34393ZM26.3743 9.89432C25.6479 10.0831 24.9791 10.4991 24.4959 11.0879C23.1935 12.6463 23.2735 15.1807 24.7103 16.6303C25.5295 17.4623 26.7647 17.8527 27.9039 17.6223C28.9631 17.4335 29.8911 16.7231 30.3999 15.7823C31.2863 14.1855 31.0303 11.9839 29.6735 10.7359C28.8063 9.93592 27.5295 9.59992 26.3743 9.89432Z" fill="#FA3913"/>
<path d="M40.2017 7.34399C42.2273 6.95359 44.4449 7.51999 45.9585 8.94079C48.4289 11.1552 48.6977 15.3024 46.5889 17.8528C45.3153 19.4624 43.2481 20.3488 41.2065 20.256C39.2609 20.2016 37.3409 19.2352 36.1857 17.6384C34.8833 15.8816 34.6017 13.4624 35.3409 11.4112C36.0801 9.31839 38.0129 7.72159 40.2017 7.34399ZM40.6049 9.89439C39.8785 10.0832 39.2097 10.4992 38.7265 11.0752C37.4369 12.6048 37.4913 15.1008 38.8737 16.5664C39.6929 17.44 40.9665 17.8688 42.1473 17.6256C43.1937 17.424 44.1345 16.7264 44.6433 15.7856C45.5169 14.176 45.2609 11.9744 43.8913 10.7264C43.0209 9.92319 41.7441 9.59999 40.6049 9.89439Z" fill="#FCBD06"/>
<path d="M52.2689 8.12163C53.8113 7.15523 55.8657 6.88643 57.5297 7.71843C58.0545 7.94563 58.4833 8.33603 58.8993 8.72643C58.9121 8.36483 58.8993 7.98723 58.9121 7.61283C59.8113 7.62563 60.7105 7.61283 61.6225 7.62563V19.4656C61.6097 21.2512 61.1521 23.1424 59.8657 24.4448C58.4577 25.8816 56.2945 26.3232 54.3489 26.0288C52.2689 25.7216 50.4577 24.2048 49.6513 22.2848C50.4577 21.8944 51.3025 21.5872 52.1345 21.2256C52.6049 22.3264 53.5585 23.2672 54.7521 23.4816C55.9457 23.696 57.3281 23.4016 58.1089 22.4064C58.9409 21.3856 58.9409 19.9904 58.8993 18.7424C58.2817 19.3472 57.5713 19.8848 56.7105 20.0832C54.8449 20.608 52.7905 19.9616 51.3537 18.7008C49.9041 17.44 49.0465 15.4912 49.1265 13.5584C49.1681 11.3728 50.4033 9.26403 52.2689 8.12163ZM55.0465 9.84003C54.2273 9.97443 53.4625 10.432 52.9377 11.0624C51.6769 12.5664 51.6769 14.9696 52.9505 16.4448C53.6769 17.3184 54.8417 17.8016 55.9713 17.68C57.0305 17.5712 58.0129 16.9024 58.5345 15.9744C59.4209 14.4032 59.2737 12.2688 58.0769 10.8992C57.3409 10.0576 56.1601 9.63843 55.0465 9.84003Z" fill="#3780FF"/>
<path d="M70.0001 8.80645C71.6097 7.30245 74.0929 6.79365 76.1601 7.58405C78.1185 8.32325 79.3697 10.1888 80.0001 12.1088C77.0881 13.3184 74.1889 14.512 71.2737 15.7184C71.6769 16.4832 72.2945 17.1808 73.1265 17.4624C74.2945 17.8784 75.6897 17.7312 76.6689 16.9536C77.0593 16.6592 77.3665 16.2688 77.6609 15.8944C78.4001 16.3904 79.1361 16.8736 79.8753 17.3696C78.8289 18.9408 77.0689 20.0416 75.1777 20.2144C73.0849 20.4704 70.8545 19.664 69.5009 18.0256C67.2737 15.4528 67.4913 11.1296 70.0001 8.80645ZM71.4369 11.2896C70.9793 11.9488 70.7937 12.752 70.8065 13.5456C72.7521 12.7392 74.6977 11.936 76.6465 11.1168C76.3233 10.3648 75.5457 9.90725 74.7553 9.78885C73.4753 9.55845 72.1473 10.2432 71.4369 11.2896Z" fill="#FA3913"/>
</g>
<defs>
<clipPath id="clip0_93_3">
<rect width="80" height="26.112" fill="white"/>
</clipPath>
</defs>
</svg>
