<svg width="80" height="21" viewBox="0 0 80 21" fill="none" xmlns="http://www.w3.org/2000/svg">
<g clip-path="url(#clip0_93_15)">
<path fill-rule="evenodd" clip-rule="evenodd" d="M25.5935 15.9391L26.5919 13.6191C27.6703 14.4255 29.1071 14.8447 30.5247 14.8447C31.5711 14.8447 32.2335 14.4415 32.2335 13.8303C32.2175 12.1215 25.9647 13.4591 25.9167 9.17433C25.9007 6.99833 27.8335 5.32153 30.5727 5.32153C32.2015 5.32153 33.8271 5.72473 34.9887 6.64313L34.0543 9.01113C32.9919 8.33273 31.6703 7.84953 30.4127 7.84953C29.5583 7.84953 28.9951 8.25273 28.9951 8.76793C29.0111 10.4447 35.3119 9.52633 35.3759 13.6191C35.3759 15.8431 33.4911 17.4079 30.7839 17.4079C28.7999 17.4047 26.9791 16.9375 25.5935 15.9391ZM63.9327 12.7807C63.4335 13.6511 62.4991 14.2463 61.4175 14.2463C59.8207 14.2463 58.5343 12.9567 58.5343 11.3631C58.5343 9.76953 59.8239 8.47993 61.4175 8.47993C62.4959 8.47993 63.4335 9.07513 63.9327 9.94553L66.6879 8.41593C65.6575 6.57913 63.6735 5.32153 61.4175 5.32153C58.0799 5.32153 55.3727 8.02873 55.3727 11.3663C55.3727 14.7039 58.0799 17.4111 61.4175 17.4111C63.6895 17.4111 65.6575 16.1695 66.6879 14.3167L63.9327 12.7807ZM36.7615 0.307129H40.2111V17.1807H36.7615V0.307129ZM68.0415 0.307129V17.1807H71.4911V12.1183L75.5838 17.1807H79.9998L74.7934 11.1679L79.6126 5.55833H75.3886L71.4879 10.2143V0.307129H68.0415Z" fill="black"/>
<path d="M50.4608 12.8128C49.9616 13.6352 48.9312 14.2464 47.7696 14.2464C46.1728 14.2464 44.8864 12.9568 44.8864 11.3632C44.8864 9.76956 46.176 8.47996 47.7696 8.47996C48.9312 8.47996 49.9616 9.12316 50.4608 9.96156V12.8128ZM50.4608 5.56156V6.93116C49.8976 5.98076 48.496 5.31836 47.0272 5.31836C43.9968 5.31836 41.6128 7.99356 41.6128 11.3472C41.6128 14.7008 43.9968 17.408 47.0272 17.408C48.4928 17.408 49.8944 16.7488 50.4608 15.7952V17.1648H53.9104V5.56156H50.4608Z" fill="black"/>
<path fill-rule="evenodd" clip-rule="evenodd" d="M4.27211 12.7967C4.27211 13.9743 3.32171 14.9247 2.14411 14.9247C0.966513 14.9247 0.0161133 13.9711 0.0161133 12.7967C0.0161133 11.6223 0.966513 10.6687 2.14411 10.6687H4.27211V12.7967ZM5.33451 12.7967C5.33451 11.6191 6.28491 10.6687 7.46251 10.6687C8.64011 10.6687 9.59051 11.6191 9.59051 12.7967V18.1151C9.59051 19.2927 8.64011 20.2431 7.46251 20.2431C6.28491 20.2431 5.33451 19.2927 5.33451 18.1151V12.7967Z" fill="#E01E5A"/>
<path fill-rule="evenodd" clip-rule="evenodd" d="M7.4624 4.256C6.2848 4.256 5.3344 3.3056 5.3344 2.128C5.3344 0.9504 6.2848 0 7.4624 0C8.64 0 9.5904 0.9504 9.5904 2.128V4.256H7.4624ZM7.4624 5.3344C8.64 5.3344 9.5904 6.2848 9.5904 7.4624C9.5904 8.64 8.64 9.5904 7.4624 9.5904H2.128C0.9504 9.5904 0 8.6368 0 7.4624C0 6.288 0.9504 5.3344 2.128 5.3344H7.4624Z" fill="#36C5F0"/>
<path fill-rule="evenodd" clip-rule="evenodd" d="M15.9871 7.4624C15.9871 6.2848 16.9375 5.3344 18.1151 5.3344C19.2927 5.3344 20.2431 6.2848 20.2431 7.4624C20.2431 8.64 19.2927 9.5904 18.1151 9.5904H15.9871V7.4624ZM14.9247 7.4624C14.9247 8.64 13.9743 9.5904 12.7967 9.5904C11.6191 9.5904 10.6687 8.64 10.6687 7.4624V2.128C10.6687 0.9504 11.6191 0 12.7967 0C13.9743 0 14.9247 0.9504 14.9247 2.128V7.4624Z" fill="#2EB67D"/>
<path fill-rule="evenodd" clip-rule="evenodd" d="M12.7967 15.9871C13.9743 15.9871 14.9247 16.9375 14.9247 18.1151C14.9247 19.2927 13.9743 20.2431 12.7967 20.2431C11.6191 20.2431 10.6687 19.2927 10.6687 18.1151V15.9871H12.7967ZM12.7967 14.9247C11.6191 14.9247 10.6687 13.9743 10.6687 12.7967C10.6687 11.6191 11.6191 10.6687 12.7967 10.6687H18.1311C19.3087 10.6687 20.2591 11.6191 20.2591 12.7967C20.2591 13.9743 19.3087 14.9247 18.1311 14.9247H12.7967Z" fill="#ECB22E"/>
</g>
<defs>
<clipPath id="clip0_93_15">
<rect width="80" height="20.2432" fill="white"/>
</clipPath>
</defs>
</svg>
