<svg width="80" height="25" viewBox="0 0 80 25" fill="none" xmlns="http://www.w3.org/2000/svg">
<g clip-path="url(#clip0_11_45)">
<path d="M42.1621 6.27134C42.1621 7.17088 41.4373 7.89521 40.5377 7.89521C39.6382 7.89521 38.9139 7.17088 38.9139 6.27134C38.9139 5.3718 39.6135 4.64747 40.5377 4.64747C41.4627 4.67243 42.1621 5.39701 42.1621 6.27134ZM35.466 9.54454V9.94438C35.466 9.94438 34.6917 8.9445 33.0427 8.9445C30.3196 8.9445 28.1955 11.0184 28.1955 13.8915C28.1955 16.7399 30.2946 18.8385 33.0427 18.8385C34.7167 18.8385 35.466 17.8141 35.466 17.8141V18.2387C35.466 18.4386 35.6162 18.5881 35.8159 18.5881H37.8394V9.1936H35.8159C35.6162 9.19435 35.466 9.36957 35.466 9.54454ZM35.466 15.5655C35.0916 16.1154 34.3418 16.5901 33.4425 16.5901C31.8436 16.5901 30.6191 15.5907 30.6191 13.8915C30.6191 12.1925 31.8436 11.1931 33.4425 11.1931C34.3171 11.1931 35.1165 11.6928 35.466 12.2174V15.5655ZM39.3387 9.19435H41.737V18.5889H39.3387V9.19435ZM75.1667 8.94426C73.5177 8.94426 72.7429 9.94413 72.7429 9.94413V4.67243H70.3446V18.5889H72.3685C72.5685 18.5889 72.718 18.4139 72.718 18.2389V17.8144C72.718 17.8144 73.4927 18.8387 75.1413 18.8387C77.8649 18.8387 79.9884 16.7406 79.9884 13.8922C79.9884 11.0438 77.8649 8.94426 75.1667 8.94426ZM74.7669 16.5649C73.8421 16.5649 73.1178 16.0907 72.7429 15.5406V12.1925C73.1178 11.6928 73.9173 11.1681 74.7669 11.1681C76.3658 11.1681 77.59 12.1675 77.59 13.8665C77.59 15.5655 76.3661 16.5649 74.7669 16.5649ZM69.0956 13.0174V18.6138H66.6967V13.292C66.6967 11.7432 66.1971 11.1182 64.8488 11.1182C64.1244 11.1182 63.3746 11.4931 62.8992 12.043V18.5891H60.5013V9.1946H62.3995C62.5994 9.1946 62.7494 9.36957 62.7494 9.54454V9.94438C63.449 9.21956 64.3733 8.9445 65.2975 8.9445C66.3471 8.9445 67.2216 9.24477 67.9213 9.8443C68.7704 10.5439 69.0956 11.4432 69.0956 13.0174ZM54.679 8.94426C53.0304 8.94426 52.2557 9.94413 52.2557 9.94413V4.67243H49.8574V18.5889H51.8808C52.0807 18.5889 52.2307 18.4139 52.2307 18.2389V17.8144C52.2307 17.8144 53.0055 18.8387 54.6541 18.8387C57.3776 18.8387 59.5012 16.7406 59.5012 13.8922C59.5261 11.0436 57.4026 8.94426 54.679 8.94426ZM54.2792 16.5649C53.3549 16.5649 52.6306 16.0907 52.2557 15.5406V12.1925C52.6306 11.6928 53.4301 11.1681 54.2792 11.1681C55.8786 11.1681 57.1026 12.1675 57.1026 13.8665C57.1026 15.5655 55.8786 16.5649 54.2792 16.5649ZM47.7835 8.94426C48.5078 8.94426 48.8827 9.06955 48.8827 9.06955V11.2929C48.8827 11.2929 46.8839 10.6183 45.635 12.0427V18.6136H43.2361V9.19435H45.2601C45.46 9.19435 45.6095 9.36932 45.6095 9.54428V9.94413C46.0598 9.41923 47.0342 8.94426 47.7835 8.94426ZM22.8742 17.7392C22.7494 17.4395 22.6243 17.1148 22.4995 16.8397C22.2994 16.3902 22.0994 15.9651 21.925 15.5655L21.9 15.5406C20.1758 11.7926 18.3273 7.9953 16.3782 4.24787L16.3033 4.09761C16.0983 3.70886 15.8986 3.31738 15.7041 2.92327C15.454 2.47325 15.2044 1.99901 14.8045 1.54899C14.0051 0.549614 12.8557 -0.000244141 11.6317 -0.000244141C10.3822 -0.000244141 9.25804 0.549617 8.43388 1.49883C8.05899 1.94835 7.78393 2.42308 7.53434 2.8731C7.33934 3.26696 7.13957 3.65844 6.93506 4.04744L6.85993 4.1977C4.93606 7.94512 3.06235 11.7427 1.3384 15.4904L1.31319 15.5401C1.13848 15.9404 0.938299 16.365 0.738374 16.8142C0.613577 17.0893 0.48878 17.3891 0.363982 17.7138C0.03901 18.638 -0.0610822 19.5126 0.0642143 20.4124C0.339018 22.2864 1.58799 23.8598 3.31219 24.5599C3.96188 24.835 4.63654 24.9598 5.3359 24.9598C5.53583 24.9598 5.78543 24.9348 5.9856 24.9096C6.81027 24.8098 7.65963 24.5352 8.48429 24.0605C9.50863 23.4857 10.483 22.6615 11.5823 21.4622C12.6815 22.6615 13.6809 23.4857 14.6802 24.0605C15.5051 24.5352 16.3543 24.8098 17.1787 24.9096C17.3786 24.9351 17.6287 24.9598 17.8286 24.9598C18.5282 24.9598 19.2276 24.835 19.8521 24.5599C21.6012 23.8598 22.8252 22.2614 23.1003 20.4124C23.2987 19.5381 23.1989 18.664 22.8742 17.7392ZM11.6065 19.0384C10.2572 17.3394 9.38258 15.7405 9.08307 14.3917C8.95827 13.8169 8.93306 13.3172 9.00819 12.8674C9.05786 12.4675 9.20812 12.1176 9.40804 11.8178C9.88277 11.1437 10.6822 10.7186 11.6067 10.7186C12.5315 10.7186 13.3559 11.1185 13.8057 11.8178C14.0056 12.1176 14.1553 12.4678 14.2058 12.8674C14.2804 13.3174 14.2554 13.8418 14.1306 14.3917C13.8299 15.7155 12.9553 17.3147 11.6065 19.0384ZM21.5748 20.2127C21.4001 21.5119 20.5255 22.6365 19.3015 23.1362C18.7019 23.3858 18.052 23.461 17.4028 23.3858C16.7783 23.3107 16.1533 23.1108 15.5041 22.7364C14.6046 22.2362 13.7053 21.4622 12.6558 20.3126C14.3046 18.2891 15.304 16.4399 15.6789 14.7913C15.8538 14.0165 15.879 13.3172 15.8037 12.6672C15.7041 12.0427 15.4789 11.4679 15.1292 10.9682C14.3543 9.84355 13.0549 9.19435 11.6062 9.19435C10.1576 9.19435 8.85818 9.869 8.08369 10.9682C7.73401 11.4679 7.50887 12.0427 7.40904 12.6672C7.3092 13.3172 7.33391 14.0415 7.53383 14.7913C7.90847 16.4399 8.93282 18.3138 10.5567 20.3375C9.53234 21.4869 8.60784 22.2617 7.7083 22.7614C7.05861 23.1362 6.43437 23.3362 5.80989 23.4108C5.13548 23.4859 4.48554 23.3858 3.91097 23.1612C2.68696 22.6615 1.81238 21.5368 1.63766 20.2377C1.56278 19.6132 1.61245 18.9887 1.86255 18.2891C1.93718 18.039 2.06247 17.7894 2.18727 17.4897C2.36224 17.0898 2.56166 16.6647 2.76184 16.2402L2.78705 16.1905C4.51075 12.4675 6.3595 8.66995 8.28337 4.97244L8.35825 4.82219C8.55842 4.4478 8.75835 4.04794 8.95803 3.67305C9.15795 3.2732 9.38258 2.89831 9.65763 2.57333C10.1823 1.97431 10.8816 1.64908 11.6564 1.64908C12.4311 1.64908 13.1305 1.97431 13.6551 2.57333C13.9302 2.89906 14.1548 3.27395 14.3548 3.67305C14.5549 4.04794 14.7549 4.4478 14.9543 4.82219L15.0294 4.97244C16.924 8.68531 18.7481 12.4337 20.501 16.2155V16.2404C20.7012 16.6408 20.8759 17.09 21.0758 17.4904C21.2006 17.7897 21.3257 18.0393 21.4006 18.2894C21.6 18.9383 21.6749 19.5633 21.5748 20.2127Z" fill="#FF5A5F"/>
</g>
<defs>
<clipPath id="clip0_11_45">
<rect width="80" height="24.96" fill="white"/>
</clipPath>
</defs>
</svg>
