<svg width="64" height="64" viewBox="0 0 64 64" fill="none" xmlns="http://www.w3.org/2000/svg">
<circle cx="32" cy="32" r="32" fill="#E8FAFA"/>
<path d="M36.1142 31.5429C37.1241 31.5429 37.9428 30.7242 37.9428 29.7143C37.9428 28.7044 37.1241 27.8857 36.1142 27.8857C35.1043 27.8857 34.2856 28.7044 34.2856 29.7143C34.2856 30.7242 35.1043 31.5429 36.1142 31.5429Z" fill="#23CEC9"/>
<path d="M44.7999 20.5714C44.7999 20.2077 44.6554 19.8588 44.3982 19.6016C44.141 19.3444 43.7922 19.2 43.4285 19.2H27.4285V44.8H43.4285C43.7922 44.8 44.141 44.6555 44.3982 44.3983C44.6554 44.1411 44.7999 43.7922 44.7999 43.4285V20.5714ZM36.1142 38.8571C34.758 38.8571 33.4322 38.4549 32.3046 37.7015C31.1769 36.948 30.298 35.877 29.779 34.6241C29.26 33.3711 29.1242 31.9923 29.3888 30.6622C29.6534 29.332 30.3065 28.1102 31.2654 27.1512C32.2244 26.1922 33.4463 25.5392 34.7764 25.2746C36.1066 25.01 37.4853 25.1458 38.7383 25.6648C39.9913 26.1838 41.0622 27.0627 41.8157 28.1903C42.5692 29.318 42.9713 30.6437 42.9713 32C42.9693 33.8179 42.2462 35.5609 40.9606 36.8464C39.6751 38.1319 37.9322 38.855 36.1142 38.8571Z" fill="#23CEC9"/>
<path d="M36.1142 26.0571C34.9853 26.0559 33.8794 26.3765 32.9262 26.9814C31.973 27.5862 31.2119 28.4501 30.7322 29.472C30.2524 30.4939 30.0738 31.6314 30.2174 32.7511C30.361 33.8709 30.8207 34.9265 31.5428 35.7943V34.7428C31.5439 34.0009 31.8025 33.2823 32.2743 32.7097C32.7462 32.1372 33.4021 31.7461 34.1302 31.6032C33.7594 31.2147 33.5107 30.7259 33.4151 30.1974C33.3195 29.6689 33.3812 29.124 33.5925 28.6303C33.8038 28.1365 34.1553 27.7156 34.6036 27.4198C35.0519 27.1241 35.5771 26.9664 36.1142 26.9664C36.6513 26.9664 37.1765 27.1241 37.6248 27.4198C38.0731 27.7156 38.4246 28.1365 38.6359 28.6303C38.8472 29.124 38.9088 29.6689 38.8133 30.1974C38.7177 30.7259 38.469 31.2147 38.0982 31.6032C38.8263 31.7461 39.4822 32.1372 39.9541 32.7097C40.4259 33.2823 40.6845 34.0009 40.6856 34.7428V35.7943C41.4077 34.9265 41.8674 33.8709 42.011 32.7511C42.1545 31.6314 41.976 30.4939 41.4962 29.472C41.0165 28.4501 40.2554 27.5862 39.3022 26.9814C38.349 26.3765 37.2431 26.0559 36.1142 26.0571Z" fill="#23CEC9"/>
<path d="M37.4856 32.457H34.7427C34.1368 32.4578 33.5558 32.6988 33.1273 33.1273C32.6988 33.5558 32.4578 34.1368 32.457 34.7427V36.6746C33.4991 37.496 34.7873 37.9427 36.1142 37.9427C37.441 37.9427 38.7293 37.496 39.7713 36.6746V34.7427C39.7706 34.1368 39.5295 33.5558 39.101 33.1273C38.6725 32.6988 38.0916 32.4578 37.4856 32.457Z" fill="#23CEC9"/>
<path d="M23.7714 29.2571C23.7714 29.0146 23.6751 28.782 23.5036 28.6106C23.3321 28.4391 23.0996 28.3428 22.8571 28.3428H20.1142C19.8718 28.3428 19.6392 28.4391 19.4677 28.6106C19.2963 28.782 19.2 29.0146 19.2 29.2571C19.2 29.4995 19.2963 29.7321 19.4677 29.9036C19.6392 30.075 19.8718 30.1713 20.1142 30.1713H22.8571C23.0996 30.1713 23.3321 30.075 23.5036 29.9036C23.6751 29.7321 23.7714 29.4995 23.7714 29.2571Z" fill="#23CEC9"/>
<path d="M21.9429 20.5714V21.9428H22.8572C23.3421 21.9428 23.8072 22.1355 24.1502 22.4784C24.4931 22.8213 24.6857 23.2864 24.6857 23.7714C24.6857 24.2563 24.4931 24.7215 24.1502 25.0644C23.8072 25.4073 23.3421 25.6 22.8572 25.6H21.9429V27.4285H22.8572C23.3421 27.4285 23.8072 27.6212 24.1502 27.9641C24.4931 28.307 24.6857 28.7721 24.6857 29.2571C24.6857 29.7421 24.4931 30.2072 24.1502 30.5501C23.8072 30.893 23.3421 31.0857 22.8572 31.0857H21.9429V33.3714H22.8572C23.3421 33.3714 23.8072 33.564 24.1502 33.907C24.4931 34.2499 24.6857 34.715 24.6857 35.2C24.6857 35.6849 24.4931 36.15 24.1502 36.4929C23.8072 36.8359 23.3421 37.0285 22.8572 37.0285H21.9429V38.8571H22.8572C23.3421 38.8571 23.8072 39.0497 24.1502 39.3927C24.4931 39.7356 24.6857 40.2007 24.6857 40.6857C24.6857 41.1706 24.4931 41.6357 24.1502 41.9787C23.8072 42.3216 23.3421 42.5142 22.8572 42.5142H21.9429V43.4285C21.9429 43.7922 22.0874 44.1411 22.3446 44.3983C22.6017 44.6555 22.9506 44.8 23.3143 44.8H26.5143V19.2H23.3143C22.9506 19.2 22.6017 19.3444 22.3446 19.6016C22.0874 19.8588 21.9429 20.2077 21.9429 20.5714Z" fill="#23CEC9"/>
<path d="M20.1142 24.6857H22.8571C23.0996 24.6857 23.3321 24.5894 23.5036 24.418C23.6751 24.2465 23.7714 24.0139 23.7714 23.7715C23.7714 23.529 23.6751 23.2964 23.5036 23.125C23.3321 22.9535 23.0996 22.8572 22.8571 22.8572H20.1142C19.8718 22.8572 19.6392 22.9535 19.4677 23.125C19.2963 23.2964 19.2 23.529 19.2 23.7715C19.2 24.0139 19.2963 24.2465 19.4677 24.418C19.6392 24.5894 19.8718 24.6857 20.1142 24.6857Z" fill="#23CEC9"/>
<path d="M23.7714 35.1999C23.7714 34.9574 23.6751 34.7249 23.5036 34.5534C23.3321 34.382 23.0996 34.2856 22.8571 34.2856H20.1142C19.8718 34.2856 19.6392 34.382 19.4677 34.5534C19.2963 34.7249 19.2 34.9574 19.2 35.1999C19.2 35.4424 19.2963 35.675 19.4677 35.8464C19.6392 36.0179 19.8718 36.1142 20.1142 36.1142H22.8571C23.0996 36.1142 23.3321 36.0179 23.5036 35.8464C23.6751 35.675 23.7714 35.4424 23.7714 35.1999Z" fill="#23CEC9"/>
<path d="M23.7714 40.6858C23.7714 40.4433 23.6751 40.2107 23.5036 40.0393C23.3321 39.8678 23.0996 39.7715 22.8571 39.7715H20.1142C19.8718 39.7715 19.6392 39.8678 19.4677 40.0393C19.2963 40.2107 19.2 40.4433 19.2 40.6858C19.2 40.9283 19.2963 41.1608 19.4677 41.3323C19.6392 41.5037 19.8718 41.6001 20.1142 41.6001H22.8571C23.0996 41.6001 23.3321 41.5037 23.5036 41.3323C23.6751 41.1608 23.7714 40.9283 23.7714 40.6858Z" fill="#23CEC9"/>
</svg>
