<svg width="64" height="64" viewBox="0 0 64 64" fill="none" xmlns="http://www.w3.org/2000/svg">
<circle cx="32" cy="32" r="32" fill="#FEF5EC"/>
<path d="M40.6032 40.6035C40.6032 39.6764 41.3549 38.9248 42.2819 38.9248H44.8L44.7979 38.0854C44.0328 37.0665 42.8153 36.4067 41.4426 36.4067C40.1479 36.4067 38.9925 36.9943 38.2237 37.9163C37.9094 38.2932 37.4406 38.5051 36.95 38.5051H21.718C20.5593 38.5051 19.6196 39.4447 19.6196 40.6035C19.6196 41.7622 20.5593 42.7018 21.718 42.7018H36.95C37.4406 42.7018 37.9094 42.9138 38.2237 43.2906C38.9925 44.2126 40.1479 44.8002 41.4426 44.8002C42.8153 44.8002 44.0328 44.1405 44.7979 43.1215L44.8 42.2821H42.2819C41.3549 42.2821 40.6032 41.5305 40.6032 40.6035Z" fill="#F4A45D"/>
<path d="M40.6031 35.6448V33.8884H28.8523V37.6655H36.9499C37.1971 37.6655 37.4266 37.5606 37.579 37.378C37.767 37.1526 37.9764 36.952 38.1963 36.7657C37.8857 36.6427 37.6654 36.341 37.6654 35.9868C37.6654 35.5231 38.041 35.1474 38.5048 35.1474C38.9685 35.1474 39.3441 35.5231 39.3441 35.9868C39.3441 36.0015 39.3407 36.0149 39.3399 36.0292C39.7398 35.8449 40.165 35.719 40.6031 35.6448ZM30.531 37.2458H29.6916V36.4065H30.531V37.2458ZM30.531 35.5671H29.6916V34.7278H30.531V35.5671ZM35.1474 36.8261C34.6836 36.8261 34.308 36.4505 34.308 35.9868C34.308 35.5231 34.6836 35.1474 35.1474 35.1474C35.6111 35.1474 35.9867 35.5231 35.9867 35.9868C35.9867 36.4505 35.6111 36.8261 35.1474 36.8261Z" fill="#F4A45D"/>
<path d="M21.0981 26.9005C21.1733 27.1355 21.2723 27.3731 21.3936 27.6081L21.5002 27.8146L20.9773 28.6938L22.2963 30.0128L23.1759 29.4899L23.3828 29.5973C23.617 29.7182 23.8545 29.8177 24.0891 29.8928L24.3107 29.9633L24.5621 30.9508H26.4276L26.6789 29.9629L26.9005 29.8924C27.1351 29.8172 27.3727 29.7178 27.6068 29.5969L27.8137 29.4895L28.5251 29.9125H28.7932L30.0124 28.6938L29.4895 27.8146L29.5961 27.6081C29.7174 27.3731 29.8164 27.1355 29.8915 26.9005L29.9625 26.6789L30.9508 26.428V24.5625L29.9629 24.3116L29.8919 24.09C29.8168 23.855 29.7178 23.6174 29.5965 23.3824L29.4899 23.1759L30.0128 22.2967L28.6938 20.9777L27.8142 21.5006L27.6073 21.3932C27.3731 21.2723 27.1355 21.1728 26.9009 21.0977L26.6794 21.0272L26.428 20.0393H24.5625L24.3111 21.0272L24.0891 21.0977C23.8545 21.1728 23.617 21.2723 23.3828 21.3932L23.1759 21.5006L22.2967 20.9777L20.9777 22.2967L21.5006 23.1759L21.394 23.3824C21.2727 23.6174 21.1737 23.855 21.0986 24.09L21.0272 24.3116L20.0393 24.5621V26.4276L21.0272 26.6785L21.0981 26.9005ZM25.495 22.1377C27.3492 22.1377 28.8524 23.6409 28.8524 25.495C28.8524 27.3492 27.3492 28.8524 25.495 28.8524C23.6409 28.8524 22.1377 27.3492 22.1377 25.495C22.1377 23.6409 23.6409 22.1377 25.495 22.1377Z" fill="#F4A45D"/>
<path d="M40.6031 28.8525H31.04L28.8523 31.0403V33.0493H40.6031V28.8525ZM30.9507 31.7902C30.4869 31.7902 30.1113 31.4146 30.1113 30.9509C30.1113 30.4872 30.4869 30.1116 30.9507 30.1116C31.4144 30.1116 31.79 30.4872 31.79 30.9509C31.79 31.4146 31.4144 31.7902 30.9507 31.7902ZM34.308 31.7902C33.8443 31.7902 33.4687 31.4146 33.4687 30.9509C33.4687 30.4872 33.8443 30.1116 34.308 30.1116C34.7718 30.1116 35.1474 30.4872 35.1474 30.9509C35.1474 31.4146 34.7718 31.7902 34.308 31.7902ZM39.7638 32.2099H38.9244V31.3706H39.7638V32.2099ZM39.7638 30.5312H38.9244V29.6919H39.7638V30.5312Z" fill="#F4A45D"/>
<path d="M31.7901 27.0802L30.6142 27.3794C30.5642 27.5129 30.5084 27.6476 30.4463 27.7806L30.5844 28.0131H40.6032V24.2361C40.6032 24.0044 40.4148 23.8164 40.1835 23.8164H31.4229L31.7901 23.91V27.0802ZM38.5048 25.0754C38.9686 25.0754 39.3442 25.451 39.3442 25.9148C39.3442 26.3785 38.9686 26.7541 38.5048 26.7541C38.0411 26.7541 37.6655 26.3785 37.6655 25.9148C37.6655 25.451 38.0411 25.0754 38.5048 25.0754ZM35.1475 25.0754C35.6112 25.0754 35.9868 25.451 35.9868 25.9148C35.9868 26.3785 35.6112 26.7541 35.1475 26.7541C34.6837 26.7541 34.3081 26.3785 34.3081 25.9148C34.3081 25.451 34.6837 25.0754 35.1475 25.0754Z" fill="#F4A45D"/>
<path d="M25.4951 27.1738C26.4222 27.1738 27.1738 26.4222 27.1738 25.4951C27.1738 24.568 26.4222 23.8164 25.4951 23.8164C24.568 23.8164 23.8164 24.568 23.8164 25.4951C23.8164 26.4222 24.568 27.1738 25.4951 27.1738Z" fill="#F4A45D"/>
<path d="M22.5574 34.728C21.8632 34.728 21.2983 35.2929 21.2983 35.987C21.2983 36.6812 21.8632 37.2461 22.5574 37.2461C23.1038 37.2461 23.5654 36.894 23.7392 36.4067H28.0131V35.5674H23.7392C23.5654 35.0801 23.1038 34.728 22.5574 34.728Z" fill="#F4A45D"/>
<path d="M21.6408 33.469H28.0131V32.6296H21.6408C21.467 32.1424 21.0054 31.7903 20.459 31.7903C19.7648 31.7903 19.2 32.3552 19.2 33.0493C19.2 33.7434 19.7648 34.3083 20.459 34.3083C21.0054 34.3083 21.467 33.9562 21.6408 33.469Z" fill="#F4A45D"/>
<path d="M38.5049 21.6408V22.977H39.3442V21.6408C39.8315 21.467 40.1836 21.0054 40.1836 20.459C40.1836 19.7648 39.6187 19.2 38.9245 19.2C38.2304 19.2 37.6655 19.7648 37.6655 20.459C37.6655 21.0054 38.0176 21.467 38.5049 21.6408Z" fill="#F4A45D"/>
<path d="M34.3081 21.6408V22.977H35.1474V21.6408C35.6347 21.467 35.9868 21.0054 35.9868 20.459C35.9868 19.7648 35.4219 19.2 34.7278 19.2C34.0336 19.2 33.4688 19.7648 33.4688 20.459C33.4688 21.0054 33.8209 21.467 34.3081 21.6408Z" fill="#F4A45D"/>
</svg>
